<?xml version="1.0" encoding="UTF-8" standalone="no"?>
<!-- Created with Inkscape (http://www.inkscape.org/) -->

<svg
   width="1024"
   height="1024"
   viewBox="0 0 270.93333 270.93333"
   version="1.1"
   id="svg5"
   inkscape:version="1.2.2 (732a01da63, 2022-12-09)"
   sodipodi:docname="Confessor.svg"
   xml:space="preserve"
   xmlns:inkscape="http://www.inkscape.org/namespaces/inkscape"
   xmlns:sodipodi="http://sodipodi.sourceforge.net/DTD/sodipodi-0.dtd"
   xmlns="http://www.w3.org/2000/svg"
   xmlns:svg="http://www.w3.org/2000/svg"><sodipodi:namedview
     id="namedview7"
     pagecolor="#ffffff"
     bordercolor="#000000"
     borderopacity="0.25"
     inkscape:showpageshadow="2"
     inkscape:pageopacity="0.0"
     inkscape:pagecheckerboard="0"
     inkscape:deskcolor="#d1d1d1"
     inkscape:document-units="px"
     showgrid="false"
     inkscape:zoom="0.6913019"
     inkscape:cx="340.66158"
     inkscape:cy="488.93255"
     inkscape:window-width="1920"
     inkscape:window-height="974"
     inkscape:window-x="-11"
     inkscape:window-y="-11"
     inkscape:window-maximized="1"
     inkscape:current-layer="svg5" /><defs
     id="defs2" /><g
     id="path3508"
     inkscape:label="hair bottom"
     style="display:inline"><path
       style="display:inline;fill:#477fb2;fill-opacity:1;stroke:none;stroke-width:3.175;stroke-linecap:round;stroke-linejoin:round;stroke-dasharray:none;stroke-opacity:0.5;stop-color:#000000"
       d="m 117.31913,32.6112 0.54127,0.947213 147.224,112.583067 0.27064,9.87808 -6.08923,12.17845 -0.27064,9.87809 5.27733,5.81859 5.54797,1.6238 -6.22455,5.27733 -6.63049,-1.48848 1.35316,13.93757 -3.65353,11.7725 -12.17846,2.02975 -9.33682,-1.08253 -0.94721,3.92416 4.33012,3.11228 -5.95392,4.46543 -4.33011,-1.48848 -100.94588,-100.13397 -5.68328,4.87138 -4.73606,-1.48848 3.92417,7.84834 -4.73607,8.52492 -3.65353,1.89443 1.62379,7.57771 -19.485532,-15.29073 -2.300375,-7.98366 1.623796,-13.26098 -7.713022,3.78885 -5.209675,1.08253 4.736068,-6.63049 1.285502,-9.60745 -2.976954,-6.22455 -8.52492,-6.495175 -0.541266,-11.501876 6.224545,-13.12567 -1.759112,-20.56806 z"
       id="path3608" /><path
       style="fill:#000000;fill-opacity:1;stroke:none;stroke-width:0.264583;stroke-linecap:round;stroke-linejoin:round;stroke-dasharray:none;stroke-opacity:0.5;stop-color:#000000"
       d="m 231.4967,228.78384 c 0,0 4.77864,-0.17955 6.17985,-0.89498 0.55832,-0.28507 1.11794,-0.68569 1.36228,-1.36419 0.20596,-0.57192 0.0251,-2.29158 0.0251,-2.29158 -0.21266,-0.47842 -1.16094,-0.95683 -1.81798,-1.43525 z"
       id="path13345"
       sodipodi:nodetypes="cssccc" /><path
       style="color:#000000;display:inline;fill:#000000;fill-opacity:1;stroke-linecap:round;stroke-linejoin:round;-inkscape-stroke:none"
       d="M 116.01337,30.679143 76.501652,47.729924 c -0.737446,0.318645 -1.120669,1.13792 -0.892578,1.908203 l 1.958198,16.83306 c 0.450142,3.869511 -0.40858,5.961057 -1.70019,8.503874 -0.438915,0.8641 -2.886718,4.534484 -3.445434,5.796667 -0.520307,1.175415 -1.493724,3.974126 -1.663091,4.894428 -0.288667,1.568547 -0.625968,4.614063 -0.345792,6.122128 0.29704,1.59884 2.181962,4.595764 3.71446,6.34241 0.709103,0.808191 0.632495,0.756458 1.68049,1.55335 1.047996,0.796896 4.738859,3.503466 6.175465,3.951906 0.04558,0.43878 0.234906,1.15169 0.496875,1.49154 0.156218,0.20266 0.263324,0.26016 0.375484,0.38155 0.354325,0.82535 0.716648,2.00388 0.720452,3.11183 0.01575,4.58868 -1.890993,8.57622 -2.457589,9.81565 -1.11466,2.43832 -2.231227,3.56821 -3.02125,3.85727 -0.821622,0.30063 -1.03145,0.65805 -1.184982,1.22153 -0.09569,0.35118 0.04011,1.45512 0.791291,1.78827 1.362839,0.60442 2.34467,-0.42037 2.619608,-0.48778 0.705064,-0.17288 1.432303,-0.12724 1.822308,-0.2751 3.841412,-1.23982 6.527164,-1.60017 8.555869,-4.18117 0.164798,2.5331 -2.670267,12.2946 -0.802861,17.67436 0.87289,2.51469 2.609484,4.62921 2.951943,4.99729 3.819513,4.10524 5.447098,3.33668 6.936057,4.88219 0.334625,0.34733 0.134283,1.96446 2.968965,4.39318 0.1944,0.33568 3.0884,2.43047 3.45649,2.55284 2.88666,2.03793 4.09795,2.47569 8.64184,1.64535 1.27819,0.42519 1.7965,-5.08995 1.30322,-6.34343 -1.36624,-0.75838 -3.22314,-0.78078 -4.08511,-2.29556 -0.10522,-0.57968 2.41058,0.10396 3.58204,-1.23105 0.29285,-0.33372 2.53951,-2.30387 2.70435,-2.71614 0.72135,-1.80415 1.44363,-2.63342 2.16406,-5.41247 0.29613,-1.14232 -0.49536,-3.49624 -0.76311,-3.89793 -0.55958,-0.72619 -2.23049,-2.28346 -1.78641,-2.3161 0.38654,0.0255 0.47838,0.22898 2.25963,0.27233 0.61411,0.14514 1.26614,-0.44963 1.64503,-0.95424 l 3.44489,-3.59649 96.36481,95.73617 c 0.18828,0.19377 2.00167,2.0825 2.26041,2.16027 l 2.40208,2.36379 c 1.45803,0.42344 5.02965,0.71478 5.5001,0.66193 3.92813,-0.44128 5.43215,-3.29261 6.76083,-4.56369 0.66614,-0.63726 1.06273,-2.07933 0.41894,-2.94078 -1.61417,-2.15991 -3.66704,-1.00442 -4.80373,-1.49227 -0.81587,-0.35017 -0.88747,-1.83286 -0.21787,-2.12031 0.0756,-0.0325 0.53787,-0.0758 0.89362,0.0648 0.56335,0.22261 2.71675,0.92766 5.33631,0.94308 1.01468,0.006 8.92309,0.594 12.63832,-1.72285 0.39756,-0.10659 0.80889,-0.41071 1.22981,-0.86856 4.91861,-2.69389 6.55425,-11.06528 6.73394,-13.40122 0.0301,-0.39105 0.0262,-5.67164 -0.30263,-6.61261 -0.49275,-1.41012 -1.0307,-2.98288 -1.37411,-4.2763 1.07503,0.36987 2.17774,0.75327 3.71507,0.48991 1.19642,-0.20496 2.44476,-0.67543 2.95724,-0.90654 1.50452,-0.67848 2.26078,-1.48272 3.61952,-3.01061 1.65955,-0.7124 3.40928,-6.09959 0.68696,-6.53686 -1.28463,-0.20634 -1.87239,0.48004 -3.24723,0.63489 -0.70186,0.079 -1.89708,-0.53822 -2.77069,-1.03807 -4.01118,-2.29508 -4.11062,-8.82165 -4.05823,-9.72135 0.28776,-4.94176 1.76641,-5.97201 4.47586,-10.93692 0.53734,-0.98465 2.74454,-5.3939 2.48073,-5.58932 l -0.0809,-9.12903 c 0.0197,-0.52169 -0.21839,-1.01971 -0.63672,-1.33203 L 117.5915,30.86469 c -0.45502,-0.339581 -1.05675,-0.410328 -1.57813,-0.185547 z m 0.41602,3.279297 147.30694,112.95758 0.0553,9.07639 c -4.872,7.28365 -6.57523,10.84806 -6.99534,15.08462 -0.42367,4.27257 0.77723,7.80935 1.17028,8.66184 1.18293,2.56567 2.93316,4.33155 4.43071,5.17622 1.28043,0.72221 2.04146,1.08248 4.03457,1.20902 -0.59806,0.97265 -1.86708,2.24121 -3.45088,2.48913 -1.68768,0.26418 -2.8901,-0.0856 -4.07394,-0.75422 -0.84518,-0.47732 -1.36436,-1.46044 -2.60974,-1.6115 -1.231,-0.14931 -2.17381,0.64404 -2.18375,2.05365 -0.01,1.3778 1.11479,2.36823 1.27412,3.31171 0.4323,2.55979 0.78352,6.51049 0.74434,9.17842 -0.12133,8.26147 -1.64975,9.96252 -3.22918,11.06928 -1.4573,1.02119 -6.35664,3.05904 -12.22676,3.1695 -0.53549,0.0101 -1.92693,0.0445 -3.67842,-0.249 -1.2963,-0.21719 -1.90617,-0.84829 -3.64003,-0.7428 -3.05665,0.18597 -3.47499,3.96537 -3.36684,5.15753 0.0971,1.07047 0.74992,2.7226 1.02552,2.98686 0.86658,0.83092 1.52627,1.15887 2.30046,1.35837 -0.97585,1.0198 -2.17732,1.71263 -3.28482,1.71758 -0.75857,0.003 -2.78805,-0.92979 -4.13002,-1.69628 l -99.5953,-99.09359 c -0.67924,-0.69941 -1.16496,-3.28316 -3.00622,-1.18722 -0.7265,0.76738 -0.42521,2.85883 -2.64731,4.34843 -2.71944,1.26747 -3.35354,-1.73406 -5.52743,-1.51353 -3.31494,0.41329 -1.59248,5.40495 -0.98989,6.15741 0.29583,0.36941 1.09911,1.46728 1.49026,2.51047 1.18426,3.15842 0.39848,4.27817 -0.14193,5.56441 -1.40975,1.73448 -2.68037,2.98787 -4.7714,4.50589 -0.67946,0.49326 -1.97981,2.11116 -1.90608,3.49305 0.12693,2.37893 0.87321,2.55544 0.83376,2.99359 -0.0348,0.38685 -1.537,-0.16634 -1.83705,-0.64617 -0.29996,-0.47971 0.20722,-1.26268 -2.01936,-3.34755 -0.11124,-0.10415 -2.66093,-1.86854 -3.32261,-2.1384 -5.841561,-2.38237 -8.671596,-5.49095 -9.314948,-7.92367 -1.695401,-6.41086 1.60582,-13.01414 0.783707,-18.20259 -0.302949,-1.91195 -0.688147,-3.84286 -2.754117,-3.71267 -1.937082,0.12206 -1.377567,3.58336 -7.621915,5.31944 0.858401,-2.10001 1.716801,-3.7118 2.575202,-7.18138 0.300885,-1.46416 0.423451,-4.39754 0.405223,-5.20609 -0.03434,-1.52325 -0.193797,-2.92594 -0.4598,-3.63436 -0.167232,-0.44536 -0.613553,-1.29735 -0.833796,-1.71903 C 83.602394,99.811647 80.002903,98.670789 77.341542,96.365507 74.51753,93.919336 73.850466,89.97706 74.53478,86.151665 75.46709,80.939939 79.038087,78.05163 80.748038,72.309395 80.8592,71.936099 80.690818,65.974125 80.58026,65.60065 L 79.052433,50.087346 Z"
       id="path3538"
       sodipodi:nodetypes="cccssssssscccssssssccssscccccsssccccccccsssssssccsscsscsssssccccccccssscsssssssssssscscccccsscsssssssssccssssssccc" /></g><g
     id="g3140"
     style="display:inline"
     inkscape:label="horn left"><path
       style="fill:#d67a4f;fill-opacity:1;stroke:none;stroke-width:2.91042;stroke-linecap:round;stroke-linejoin:round;stroke-dasharray:none;stroke-opacity:0.5;stop-color:#000000"
       d="m 115.58505,24.016431 20.18911,-21.0980997 -0.62194,19.7106957 -6.07587,4.257893 -5.78882,0.334891 z"
       id="path3142" /><path
       style="color:#000000;display:inline;fill:#000000;fill-opacity:1;stroke-linecap:round;stroke-linejoin:round;-inkscape-stroke:none"
       d="m 135.0918,2.0136719 c -0.0182,3.356e-4 -0.0365,9.857e-4 -0.0547,0.00195 -0.92444,0.042588 -1.58166,0.4826165 -2.16211,0.953125 -0.58045,0.4705085 -1.12129,1.0415464 -1.7168,1.703125 -1.19101,1.3231571 -2.58086,3.014323 -4.37695,4.8144531 -3.91521,3.924013 -8.00112,8.736798 -12.55034,13.591872 -0.62716,0.664425 -0.85305,1.82126 -0.15278,2.408128 3.85278,3.233855 7.73388,3.85309 11.37695,3.714844 5.62304,-0.213383 7.98985,-2.92648 10.63281,-5.152344 0.39496,-0.332839 0.60333,-0.837001 0.55859,-1.351562 -0.0734,-0.843575 0.0195,-4.847181 0.26758,-8.503907 0.12404,-1.828363 0.28021,-3.624437 0.45313,-5.0214841 0.0865,-0.6985235 0.1777,-1.3002744 0.26367,-1.7324219 0.086,-0.4321475 0.24899,-0.7672868 0.12305,-0.5488281 0.6251,-1.0842969 0.46761,-2.2863622 -0.008,-3.1777344 -0.47542,-0.8913722 -1.36951,-1.7137925 -2.65429,-1.6992187 z m -0.54995,4.0152775 c 0.23338,0.1035971 0.13437,0.1982704 0.0265,0.7406195 -0.11059,0.5559409 -0.0731,1.4176061 -0.16546,2.1639118 -0.18475,1.4926113 -0.24519,3.2568293 -0.30592,5.1281573 -0.10819,3.334039 -0.31069,6.217158 -0.4383,7.951569 -2.48215,2.181865 -3.93073,3.847472 -8.3227,4.014137 -1.39012,0.05275 -6.55127,-1.551765 -7.89534,-1.84222 -0.72916,-0.157574 0.31087,-0.967075 0.74379,-1.400353 5.03994,-5.291662 7.34665,-7.823301 10.65158,-11.391145 1.87001,-2.0187671 3.24076,-3.1318985 4.36023,-4.3430332 0.41601,-0.4709988 1.08625,-1.136786 1.34564,-1.0216434 z"
       id="path356"
       sodipodi:nodetypes="ccsssccsccsccccccsssscsscscs" /><path
       style="color:#000000;fill:#000000;fill-opacity:1;stroke-linecap:round;stroke-linejoin:round;-inkscape-stroke:none"
       d="m 130.26951,16.812781 c -1.79059,-0.104199 -4.27232,0.107797 -6.24023,0.770843 -0.24542,0.08269 -0.45102,0.186885 -0.67164,0.286735 -0.27758,0.125626 -0.46604,0.201089 -0.62275,0.16555 -0.52485,-0.119034 -2.53958,-0.957787 -2.53958,-0.957787 -0.68215,-0.248913 -0.98017,0.269535 -1.30664,0.730469 -0.15921,0.562545 0.16787,1.147618 0.73047,1.30664 0,0 1.60277,0.20971 2.032,0.644068 0.22889,0.231623 1.83916,0.110223 2.09474,0.03366 0.33579,-0.100589 0.63428,-0.159084 0.72482,-0.191407 7.9e-4,-2.8e-4 0.005,2.7e-4 0.006,0 4.34057,-0.756245 7.00965,-0.303797 10.10156,0.1875 0.57171,0.121943 1.13401,-0.242722 1.25586,-0.814453 0.12185,-0.57233 -0.24388,-1.134919 -0.8164,-1.255859 -1.69485,-0.388159 -3.31049,-0.822298 -4.74821,-0.905963 z"
       id="path3111"
       sodipodi:nodetypes="sssscccsssccccs" /><path
       style="color:#000000;display:inline;fill:#000000;fill-opacity:1;stroke-linecap:round;stroke-linejoin:round;-inkscape-stroke:none"
       d="m 136.8561,0.55853723 c -0.40937,-0.0585132 -0.88844,0.0906081 -1.20048,0.36197288 l -4.65953,4.05214609 c -0.60327,0.5316522 -0.66099,1.4518092 -0.1289,2.0546875 0.53147,0.6019855 1.16307,0.3008633 1.76568,-0.2299049 l 1.65589,-1.1653464 c 0.20198,0.3357448 0.99596,0.4828263 1.37726,0.5729857 0.7831,0.1800153 1.63156,-1.2559609 1.8118,-2.0390102 l 0.42334,-1.8340931 c 0.19505,-0.8450191 -0.336,-1.67208771 -1.04506,-1.77343757 z"
       id="path3121"
       sodipodi:nodetypes="ssccccccss" /></g><g
     id="g15613"
     inkscape:label="robe-left"
     style="display:inline"><path
       style="fill:#5a2731;fill-opacity:1;stroke:none;stroke-width:3.175;stroke-linecap:round;stroke-linejoin:round;stroke-dasharray:none;stroke-opacity:0.5;stop-color:#000000"
       d="m 15.979059,272.88789 20.284793,-12.43879 -4.784148,-1.91366 -33.0106318,8.13304 0.95682986,5.26257 z"
       id="path14926"
       inkscape:label="path14926" /><path
       style="fill:#813342;fill-opacity:1;stroke:none;stroke-width:3.175;stroke-linecap:round;stroke-linejoin:round;stroke-dasharray:none;stroke-opacity:0.5;stop-color:#000000"
       d="m 20.763209,271.93105 23.825064,-0.19135 9.951032,-15.40497 6.506443,-33.48905 -0.287049,-19.61501 -7.463274,0.5741 -0.956829,10.42945 -10.429446,32.72358 -4.305734,8.80283 -0.287049,4.87983 z"
       id="path15390" /><path
       style="color:#000000;fill:#000000;fill-opacity:1;stroke-linecap:round;stroke-linejoin:round;-inkscape-stroke:none"
       d="m 53.005859,200.98047 c -3.245561,0.02 -2.290712,3.25044 -1.498554,4.11038 0.05635,0.71355 -1.173011,5.20921 -1.778196,7.87508 -0.670147,2.95203 -1.342961,6.23372 -1.973958,9.15657 -1.349471,6.25091 -2.773117,11.68434 -4.477472,16.54222 -1.650802,4.70523 -4.94678,13.06666 -7.436587,17.05508 -4.473547,0.93326 -8.880661,1.54177 -13.073728,2.48939 -1.790521,0.40465 -5.008487,0.6298 -6.718769,1.03554 -5.489644,1.30232 -12.5194968,1.97338 -17.6340643,3.88614 -1.0265987,0.38393 -1.5429817,2.58406 -1.012194,3.543 0.5313902,0.95945 1.0806769,1.86405 2.03955241,1.33162 4.35076709,-2.1486 11.68417889,-3.63344 17.69812489,-4.87951 6.787822,-1.4064 13.120018,-1.50213 19.271464,-2.69988 0.518896,-0.18732 2.509368,-3.05142 2.725309,-3.55907 2.659186,-5.46377 4.937952,-11.55019 6.899674,-17.12143 1.822497,-5.17585 5.400793,-14.28875 6.092023,-16.90033 0.700387,-2.64618 1.828409,-7.15533 2.031608,-11.89807 0.04448,-1.03808 0.08594,-5.60797 0.08788,-6.38702 0.0037,-1.48664 0.471801,-3.3051 -1.242121,-3.57972 z"
       id="path14852"
       sodipodi:nodetypes="ccssscsssccsccsssscc" /><path
       style="color:#000000;fill:#000000;fill-opacity:1;stroke-linecap:round;stroke-linejoin:round;-inkscape-stroke:none"
       d="m 57.756845,218.43149 c -0.452489,-0.27733 -0.924016,0.12068 -1.253504,1.23125 -1.818765,6.13029 -4.812923,12.78668 -7.499435,18.97007 -2.128092,4.89811 -3.832849,9.59477 -6.359234,13.39989 -1.304819,1.96525 -2.130311,2.51522 -4.054902,3.70942 -0.611958,0.37972 -6.471331,3.83511 -6.276952,5.82515 -0.855814,0.53616 -9.553778,5.37765 -15.885768,9.25932 -0.737095,0.47421 0.43698,1.14507 0.910841,1.88239 0.474284,0.7383 2.127377,0.83215 2.865093,0.35696 2.967644,-2.21843 8.635322,-5.82429 11.092877,-7.32747 2.151035,-1.31569 5.908793,-4.11851 7.860977,-5.32411 0.602458,-0.37206 0.766793,-0.56038 0.831182,-0.68768 0.06452,-0.12756 0.187201,-0.53578 0.02744,-0.95098 1.106288,-0.63539 2.062972,-1.35098 2.990701,-2.62279 0.566715,-0.77691 1.434739,-1.62393 2.056505,-2.64062 2.536406,-4.14744 5.090428,-9.9959 6.741658,-14.41632 2.574193,-6.89124 5.591888,-12.73734 6.283074,-18.46149 0.116993,-0.9689 -0.05729,-2.03552 -0.330553,-2.20299 z"
       id="path14920"
       sodipodi:nodetypes="sssssccccssscsssss" /></g><g
     id="g13338"
     inkscape:label="dress"
     style="display:inline"><path
       style="display:inline;fill:#1e1123;fill-opacity:1;stroke:none;stroke-width:0.264583;stroke-linecap:round;stroke-linejoin:round;stroke-dasharray:none;stroke-opacity:0.5;stop-color:#000000"
       d="m 120.83735,144.92363 5.27733,15.42605 4.60075,7.5777 5.95391,3.78885 8.86321,-2.02974 8.66024,-10.21637 8.05131,-17.65876 1.89443,11.36656 -5.48031,37.41492 -24.83052,-8.59257 -17.32047,-19.75617 z"
       id="path14267" /><path
       style="display:inline;fill:#42273c;fill-opacity:1;stroke:none;stroke-width:0.264583;stroke-linecap:round;stroke-linejoin:round;stroke-dasharray:none;stroke-opacity:0.5;stop-color:#000000"
       d="m 52.625646,193.18396 7.941688,-30.04446 13.969714,-12.82152 19.80638,1.05251 18.371132,8.32442 20.18911,17.50999 4.78415,3.63595 21.72004,6.79349 -8.51579,48.79833 -7.05097,19.45023 0.54127,1.21785 -3.38291,6.76581 -8.11897,3.5182 -3.51822,9.47214 -5.41265,-11.7725 -25.304123,-7.17176 -34.911574,-64.54582 z"
       id="path12815" /><path
       style="display:inline;fill:#000000;fill-opacity:1;stroke:none;stroke-width:0.264583;stroke-linecap:round;stroke-linejoin:round;stroke-dasharray:none;stroke-opacity:0.5;stop-color:#000000"
       d="m 54.911425,191.99418 c 0,0 6.701053,-1.80342 10.108068,-2.39834 3.058641,-0.53409 6.134724,-0.97424 9.230508,-1.05251 1.773085,-0.0448 4.180443,-0.1516 5.682525,0.79158 0.74378,0.46703 1.132375,0.97215 1.207146,1.73821 0.242719,2.48676 -2.12869,6.07762 -1.885633,8.04998 0.16459,1.33562 1.442779,2.32931 2.495965,2.74048 3.394047,1.32507 6.274155,2.76578 9.472359,4.09197 2.923882,1.21244 8.000897,5.59954 8.000897,5.59954 l 2.68493,8.48776 c 0,0 -2.252847,2.32595 -3.635956,3.14062 -3.129742,1.84348 -10.644026,3.59633 -10.644026,3.59633 0.576776,0.52435 1.344015,1.22569 3.287548,1.7339 4.925478,1.28797 8.099197,1.75637 11.847774,3.03914 3.96363,1.35637 8.06042,8.36275 8.06042,8.36275 l 2.49925,8.64312 c 0,0 -0.19747,3.28016 0.007,4.73407 0.12429,0.88168 0.64249,2.4065 1.14339,2.9927 1.70692,1.99762 3.32777,2.94166 5.19391,4.35209 1.23086,0.93028 1.82092,1.31258 3.55428,1.20374 l 6.76306,5.35343 -2.78676,5.87254 -10.74042,-1.7462 c 0.59258,-0.64521 1.67992,-1.74314 2.93029,-2.21267 0.30997,-0.11639 2.0091,-0.0138 2.88245,-0.0598 -1.15769,-0.51517 -3.33659,-1.40944 -4.16221,-0.99271 -0.46376,0.23407 -0.2917,0.46535 -0.29901,0.94487 -0.004,0.29434 -1.07131,1.33799 -2.23659,2.10502 l -67.941794,0.0679 12.178456,-32.34057 3.112273,-28.95766 -2.571008,-7.84834 -8.524919,-2.70632 z"
       id="path12597"
       sodipodi:nodetypes="csssssssccscssccsssccccscssccccccc" /><path
       style="color:#000000;display:inline;fill:#000000;fill-opacity:1;stroke-linecap:round;stroke-linejoin:round;-inkscape-stroke:none"
       d="m 80.544962,147.56721 c -2.848204,0.12014 -9.052291,1.29797 -11.361006,2.57634 -2.209823,1.2236 -7.28701,6.16248 -9.131161,10.89732 -1.345615,3.45486 -7.016294,15.05174 -8.580703,22.10509 -0.730084,3.29168 -1.64343,6.83602 -2.563592,10.11337 -0.488643,1.74039 -0.74203,3.63353 -0.770929,5.23625 -0.02213,1.22748 1.592055,3.13297 2.568574,3.87702 2.199547,1.67593 4.954471,3.2702 8.802231,3.76049 0.03745,0.28862 -0.33151,0.85952 -0.32146,1.54269 0.0112,0.7615 0.157925,1.26648 0.375445,1.63791 0.0341,0.71368 -0.05063,2.98663 0.111294,4.10727 0.423675,2.93218 0.02212,3.92068 -0.152336,7.44179 -0.431239,8.70373 -4.198752,24.52616 -7.964527,35.3208 -1.999799,5.73244 -3.730697,10.48938 -8.773696,15.58976 -0.659024,1.30413 2.350316,0.15543 3.654404,0.81454 1.30413,0.65902 2.89558,0.13612 3.554687,-1.16797 l 6.63086,-13.12695 c 3.129031,-12.35489 6.033161,-24.9346 9.007812,-37.38281 -0.221916,-5.79804 -1.177875,-11.83984 -1.837888,-17.69141 -0.107136,-0.94691 -0.715154,-1.76307 -1.591797,-2.13672 l -8.220703,-3.50781 c 0.765625,-4.40365 0.922325,-4.02047 3.058029,-13.17711 1.685702,-7.2273 3.971858,-12.56752 8.882712,-21.2204 1.75065,-3.08463 4.25236,-6.92988 6.331689,-8.45609 3.204471,-2.35204 5.854706,-2.4201 8.924634,-2.55581 5.691767,-0.25163 12.412705,1.1565 16.986691,2.87621 6.200064,2.33108 10.330694,3.89425 14.492994,6.61201 2.96168,1.93382 6.59851,5.1745 8.28198,6.91592 -0.0123,0.625 0.0157,1.09404 0.0712,1.33411 5.69382,3.49659 8.85308,6.91646 13.41457,10.41305 1.05026,1.01518 0.49235,1.31822 1.5081,0.26852 1.20655,-0.97849 1.33633,-1.58216 0.23166,-2.47464 -2.12868,-1.71979 -3.29348,-3.60995 -10.95157,-10.30797 -3.22436,-2.82014 -6.94526,-6.47798 -10.61851,-8.70036 -4.84776,-2.93298 -12.47237,-7.48052 -17.308384,-9.22519 -4.252879,-1.53429 -11.220701,-2.54209 -16.741304,-2.30922 z"
       id="path12339"
       sodipodi:nodetypes="ssssssscscsssccccccccssssssccccsssss" /><path
       style="color:#000000;display:inline;fill:#000000;fill-opacity:1;stroke-linecap:round;stroke-linejoin:round;-inkscape-stroke:none"
       d="m 91.753503,159.86163 c -0.329808,0.26955 -0.752701,1.86185 -0.688828,3.67977 0.239456,6.81533 1.060011,13.1394 2.026536,22.47575 0.30251,2.92215 1.844466,13.67395 3.649649,22.95843 1.93448,9.94949 10.09144,30.07436 15.3558,38.36868 2.10747,3.32045 4.8331,8.4366 7.29345,11.11928 2.79046,3.04264 4.74948,6.80852 9.6138,9.11458 1.03288,0.48966 0.0167,1.21358 -0.99805,2.20899 -1.04347,1.02358 0.36052,1.88503 1.69243,2.48708 1.33103,0.60163 0.87598,-0.18666 2.25583,-1.48556 1.0584,-0.99631 1.32159,-2.54042 1.69104,-3.74815 0.34429,-1.12547 1.28494,-1.63161 -0.2881,-2.23871 -4.14498,-1.59971 -8.59971,-5.51744 -11.03612,-8.30395 -1.70954,-1.95518 -3.09569,-4.41593 -4.5823,-6.84438 -1.05937,-1.73054 -2.11943,-3.47717 -2.99973,-5.28023 -0.84451,-1.72973 -2.34284,-4.70025 -3.49034,-6.78958 -3.71798,-6.76958 -6.15739,-12.90596 -8.42972,-19.81956 -1.92674,-5.86215 -3.186026,-10.89785 -4.06926,-15.93391 -0.730802,-4.16691 -1.43915,-7.69537 -2.097467,-12.76958 -1.202518,-9.26882 -2.195825,-15.9493 -3.216233,-26.76391 -0.259627,-2.75161 -0.768525,-3.18193 -1.682387,-2.43504 z"
       id="path12595"
       sodipodi:nodetypes="sssssssssssssssssssss" /></g><g
     id="g12045"
     inkscape:label="robe-right"
     style="display:inline"><path
       style="fill:#7e3142;fill-opacity:1;stroke:none;stroke-width:2.64583;stroke-linecap:round;stroke-linejoin:round;stroke-dasharray:none;stroke-opacity:0.5;stop-color:#000000"
       d="m 144.48132,257.19588 24.87757,-73.29317 45.92784,-7.84601 9.18556,43.63145 1.91366,17.4143 11.86469,11.67332 14.73519,-2.48775 19.7107,8.4201 -0.95675,16.64883 c -22.7843,2.25142 -107.0108,-0.38778 -141.03955,1.34513 -0.13407,-3.96037 -0.60233,-2.14274 2.68186,-7.46883 l 4.97551,-0.38274 z"
       id="path11824"
       sodipodi:nodetypes="ccccccccccccc" /><path
       style="color:#000000;fill:#000000;fill-opacity:1;stroke-linecap:round;stroke-linejoin:round;-inkscape-stroke:none"
       d="m 213.80416,176.6783 c -0.16001,0.71319 1.15742,8.55574 1.37801,9.25258 3.62453,11.44968 3.51296,13.98236 5.18663,23.22229 2.19544,12.12052 2.88157,18.42798 4.1552,28.16819 0.0378,0.28917 0.0686,1.08114 0.40534,1.68106 0.11055,0.19698 0.64837,1.10195 2.07526,1.25845 0.37866,0.67842 1.89489,2.43485 3.76304,4.11727 0.67999,0.61239 3.07366,2.90707 3.89835,3.89067 0.24815,0.29597 2.22568,1.25289 3.52271,3.03197 1.58395,2.17264 4.18442,4.99086 5.58904,5.41718 0.87568,0.26578 1.48282,0.69759 1.99926,0.18061 0.51569,-0.51622 0.35604,-1.62302 -0.28704,-2.47912 -0.18628,-0.24798 -1.23493,-1.62429 -4.69547,-4.5701 -0.86126,-0.73317 -0.80776,-2.77694 -1.79602,-3.79171 -1.35795,-1.39438 -4.14007,-3.97801 -6.09351,-4.85886 -0.40356,-0.18198 -3.13299,-2.13443 -4.00225,-2.79542 -0.3362,-0.25565 -0.71379,-0.65402 -1.08332,-0.89347 0.1264,-2.62166 -0.0985,-6.23099 -0.96137,-10.11142 -0.32076,-1.44243 -0.59005,-2.95045 -0.79557,-4.56303 -0.51404,-4.03338 -1.45569,-9.10616 -2.45452,-14.80033 -1.52254,-8.67976 -2.76141,-15.87914 -4.83711,-24.07796 -0.76618,-3.02633 -1.80108,-6.01562 -2.55187,-8.23283 -0.79684,-2.35319 -1.42214,-3.47035 -2.41479,0.95393 z"
       id="path10985"
       sodipodi:nodetypes="ssssscsssssssssscsssssss" /><path
       style="color:#000000;fill:#000000;fill-opacity:1;stroke-linecap:round;stroke-linejoin:round;-inkscape-stroke:none"
       d="m 275.98761,252.8827 c -5.74793,-3.28388 -11.61332,-6.43903 -17.50029,-8.23864 -4.42957,-1.3541 -8.53918,-1.02668 -11.5617,-0.75378 -3.39955,0.30694 -7.9057,0.78095 -11.21696,1.77386 -1.79975,0.5145 -0.87152,3.00976 -0.42157,3.66972 1.47084,2.15733 2.43979,1.6849 3.10959,1.39416 4.03975,-1.75357 4.99368,-1.97664 7.67172,-2.30565 0.84682,-0.10404 5.58923,0.0951 9.39882,1.3243 7.76033,2.50403 13.84758,6.32126 20.82256,11.27559 M 132.04502,276.0539 c 0.24562,-2.15207 0.62119,-4.3952 1.32603,-5.52052 0.20924,-0.33406 0.96581,-2.30128 1.02307,-2.45391 0.10504,-0.28002 0.59226,-0.39033 1.09503,-0.50485 1.09833,-0.25018 2.51154,-0.69396 3.57136,-1.06185 1.88263,-0.65352 4.34491,-4.23242 5.19092,-5.57727 1.08031,-1.71732 0.91719,-3.03054 1.45951,-4.40229 0.2674,-0.67902 -0.0656,-1.44632 -0.74414,-1.71484 -0.67848,-0.26762 -1.44556,0.0644 -1.71485,0.74219 -0.43634,1.30573 -0.49047,2.2892 -1.50328,3.71952 -1.07788,1.52221 -2.13913,3.24514 -4.33108,4.13843 -3.59135,1.46358 -3.99821,-0.14654 -5.5024,1.83439 -1.48046,1.94967 -4.12712,4.52371 -5.3245,11.65724"
       id="path11041"
       sodipodi:nodetypes="csscssssccssssscccsssc" /></g><g
     id="g10151"
     inkscape:label="robe"
     style="display:inline"><path
       style="fill:#7e3142;fill-opacity:1;stroke:none;stroke-width:2.64583;stroke-linecap:round;stroke-linejoin:round;stroke-dasharray:none;stroke-opacity:0.5;stop-color:#000000"
       d="m 129.07635,120.84762 -7.08054,13.4913 -1.43524,11.96037 4.78415,10.23808 4.68846,10.62081 7.65464,4.97552 8.03737,-2.10503 7.84601,-10.33376 7.94169,-15.40496 2.10502,12.24742 -6.60212,39.42139 -6.02803,38.46457 -6.98486,21.9114 4.68847,0.0957 1.05251,6.02803 6.88917,1.1482 12.91721,-3.73164 4.59278,-5.83666 1.62661,-7.84601 -2.29639,-4.87983 6.21939,-13.96972 4.49711,-49.94652 10.39491,43.98101 4.81868,35.62724 5.16688,-0.76546 3.68137,-4.68627 5.41265,-1.35316 2.43569,-19.75616 -2.97695,-9.87808 -4.73607,-3.11228 6.22455,-10.68997 2.43569,-22.46249 -6.6305,-20.97401 -12.5844,-29.63424 -20.70338,-23.95097 -22.86843,-6.08923 -20.16211,11.36657 z"
       id="path9933" /><path
       style="color:#000000;fill:#000000;fill-opacity:1;stroke-linecap:round;stroke-linejoin:round;-inkscape-stroke:none"
       d="m 125.69507,131.2954 c -0.38704,0.52407 -0.39868,0.82206 -0.14008,1.56133 0.44707,1.27806 1.27825,3.10516 2.67057,4.30417 1.25763,1.08303 2.52807,1.93216 4.12932,2.48809 0.80966,0.2811 1.85508,-0.12128 2.13642,-0.79552 0.28149,-0.67462 -0.32508,-1.9585 -1.03427,-1.7812 -0.2681,0.067 -2.55553,-0.6593 -3.4871,-1.54035 -1.07736,-1.01893 -2.41612,-2.42223 -3.12503,-3.87106 -0.32118,-0.6564 -0.71569,-0.95329 -1.14983,-0.36546 z"
       id="path9568"
       sodipodi:nodetypes="sssssssss" /><path
       style="color:#000000;fill:#000000;fill-opacity:1;stroke-linecap:round;stroke-linejoin:round;-inkscape-stroke:none"
       d="m 125.82309,140.86615 c -0.49531,0.53729 0.13661,1.2973 0.55496,1.89646 1.17866,1.68807 2.07841,2.59598 3.93514,4.06506 1.98117,1.56754 4.37169,2.42372 6.84273,3.10868 1.84649,0.51184 2.44837,0.59729 4.39716,0.58293 0.85162,-0.006 2.02325,-0.38091 2.39812,-0.54075 0.60245,-0.25688 0.9053,-0.48814 1.4191,-0.97501 0.54637,-0.51775 0.32944,-1.58045 -0.10539,-2.16851 -0.43484,-0.58806 -1.08056,-0.7187 -1.5705,-0.17569 -0.39985,0.44317 -0.31489,1.04051 -0.3137,1.21478 -1.62297,0.1561 -3.44056,-0.004 -5.48564,-0.38927 -2.214,-0.4173 -4.45472,-1.43483 -6.37346,-2.61568 -1.97492,-1.21542 -3.80922,-3.20432 -4.14032,-3.50078 -0.94037,-0.84198 -1.10741,-0.99122 -1.5582,-0.50222 z"
       id="path9570"
       sodipodi:nodetypes="ssssssssscssss" /><path
       style="color:#000000;fill:#000000;fill-opacity:1;stroke-linecap:round;stroke-linejoin:round;-inkscape-stroke:none"
       d="m 147.0746,152.42492 c -0.49232,0.38315 -1.73877,1.40464 -3.52382,2.25086 -1.02112,0.48407 -1.99678,1.19658 -3.11914,1.32813 -0.89476,0.10488 -3.12195,0.3227 -3.9797,0.0473 -0.58438,-0.18763 -1.82393,-0.93676 -2.03707,-0.93377 -0.60397,0.008 -0.71219,0.30204 -0.77262,0.66237 -0.12079,0.72034 0.76647,1.52275 1.39861,1.88855 0.65201,0.37729 1.44989,0.73182 2.14841,0.83591 1.06041,0.15801 3.03161,0.16382 3.80246,-0.0819 1.51325,-0.48227 2.74458,-0.91349 3.70538,-1.55057 1.41336,-0.93716 2.92241,-2.10522 3.92978,-3.90937 0.35632,-0.63815 1.73907,-3.21737 0.0721,-2.01908 -0.59658,0.42885 -1.17291,1.13019 -1.62442,1.48158 z"
       id="path9572"
       sodipodi:nodetypes="ssssssssssssss" /><path
       style="color:#000000;fill:#000000;fill-opacity:1;stroke-linecap:round;stroke-linejoin:round;-inkscape-stroke:none"
       d="m 161.84079,122.08679 c -0.72917,-0.0437 -0.45894,1.15514 -0.39331,1.8856 0.16018,1.78269 -0.47052,3.94041 -0.72162,4.98838 -0.40616,1.69515 -0.52638,2.52253 -1.13757,4.07746 -0.59582,1.51584 -1.10785,2.40264 -1.59312,3.44844 -0.35272,0.10401 -0.73991,0.15809 -1.35505,0.0996 -0.72652,-0.0691 -6.39693,8.13901 -5.66722,8.15053 3.43772,0.0542 4.96896,-2.11601 5.48531,-2.63327 1.18159,-1.18366 2.0402,-2.38707 2.8384,-3.5979 0.98977,-1.50141 1.82114,-3.30286 2.35964,-4.74055 0.66192,-1.76718 1.26256,-3.78734 1.47144,-5.44402 0.22355,-1.77309 0.22845,-3.21122 0.0743,-4.48779 -0.0926,-0.76727 -0.79054,-1.71226 -1.36123,-1.74647 z"
       id="path9574"
       sodipodi:nodetypes="sssscssssssss" /><path
       style="color:#000000;fill:#000000;fill-opacity:1;stroke-linecap:round;stroke-linejoin:round;-inkscape-stroke:none"
       d="m 170.87695,113.25977 c -0.57061,0.45629 -0.82003,0.88919 -0.31467,1.41683 0.95244,0.99446 1.32864,1.76837 1.92598,2.52508 2.07622,2.63012 4.16243,5.25166 6.29102,7.84132 2.11709,3.04827 4.52714,6.42754 6.23001,9.15649 1.8203,2.91716 4.74286,8.73092 5.46972,10.20908 1.77091,3.60136 3.16222,8.87955 3.88576,11.05965 0.33387,1.00598 2.42407,1.01035 3.01577,-0.15577 0.74409,-1.46646 0.75447,-3.9494 1.21995,-5.81576 0.53767,0.37863 1.67252,2.3562 2.47708,3.91005 0.95943,1.85298 2.07842,3.34839 3.01278,4.83203 0.82788,1.31458 3.63807,6.45238 5.34905,7.39374 0.90222,1.21746 0.49031,-3.54709 -0.008,-4.97821 l -2.8418,-8.05274 c -0.2434,-0.6886 -1.25249,-2.0138 -1.94122,-1.77077 -0.5592,0.23594 -0.69159,0.73756 -0.59845,1.33731 -0.60379,-0.0938 -0.558,-0.0554 -1.08017,-0.91555 -1.27921,-2.10729 -3.20291,-5.6597 -4.08109,-7.30958 -0.56589,-1.06315 -1.89333,-1.20491 -2.61861,-0.13234 -0.79275,1.17236 -0.34001,3.20848 -0.98108,3.39444 -0.58855,0.17073 -0.49295,-1.68155 -2.12457,-4.55401 -1.86232,-3.2786 -3.49709,-6.5182 -5.60292,-9.70129 -0.8193,-1.23841 -1.73537,-2.69133 -2.5901,-3.91742 -1.21465,-1.74241 -2.67827,-3.72587 -4.1076,-5.45841 -1.48977,-1.8058 -4.39722,-5.2297 -6.15633,-6.74705 -0.0324,-0.40673 -0.18535,-0.90565 -0.41005,-1.24947 -0.2788,-0.42658 -0.50785,-0.99099 -1.81247,-1.72787 -0.67308,-0.38016 -1.15098,-0.93313 -1.60818,-0.58978 z"
       id="path9576"
       sodipodi:nodetypes="csscsssscsscccccsssssssscssc" /><path
       style="color:#000000;fill:#000000;fill-opacity:1;stroke-linecap:round;stroke-linejoin:round;-inkscape-stroke:none"
       d="m 209.52808,224.8391 c -0.28509,-0.11899 -0.81337,-0.17632 -1.16249,0.51392 -0.74391,1.47081 -1.42125,3.19952 -1.90353,5.10891 -0.2359,0.93393 0.04,1.96758 0.43376,2.85343 0.41705,0.93817 1.22832,1.97134 1.8775,2.79545 0.46211,0.58663 1.79679,1.585 1.98166,1.14264 0.38319,-0.91687 -0.60814,-3.38257 -0.9739,-3.90479 -0.71357,-0.97223 -1.06427,-1.59123 -1.04533,-2.06088 0.0357,-0.88418 0.87622,-2.82717 1.50074,-4.9479 0.21838,-0.74157 -0.18067,-1.28051 -0.70841,-1.50078 z"
       id="path9885"
       sodipodi:nodetypes="sssssscsss" /></g><g
     id="g6818"
     inkscape:label="head"
     style="display:inline"><path
       style="display:inline;fill:#f4a6e4;fill-opacity:1;stroke:none;stroke-width:3.96875;stroke-linecap:round;stroke-linejoin:round;stroke-dasharray:none;stroke-opacity:0.5;stop-color:#000000"
       d="m 108.52358,43.977758 -13.531621,13.260988 -6.630493,19.620846 1.353164,17.049837 11.63719,12.855041 13.93757,3.24759 8.25428,7.30707 6.08923,8.3896 3.22293,2.0759 11.57764,-0.90899 -12.77367,-31.001285 6.1237,-20.093427 z"
       id="path6534" /><path
       style="color:#000000;fill:#000000;fill-opacity:1;stroke-linecap:round;stroke-linejoin:round;-inkscape-stroke:none"
       d="m 105.97749,44.444226 c -0.52384,0.0476 -0.92548,0.335743 -1.81026,0.903643 -3.31943,2.130586 -5.35313,4.743751 -7.499261,7.43924 -5.094363,6.398398 -8.056596,13.254481 -9.230469,18.857422 -1.013786,4.838838 -1.34987,10.299084 -0.923833,14.67969 0.546819,5.622518 1.9389,10.0828 4.513757,13.502552 4.071509,5.407507 11.096636,8.421327 18.057076,10.471007 7.13894,2.10226 8.22652,2.90157 10.42839,5.03212 1.302,1.25983 1.80553,4.66448 5.13045,8.38381 1.53229,1.71406 2.97889,3.24358 4.09992,3.79027 1.21813,0.59404 3.06677,1.19115 4.37642,1.19099 1.22994,-1.4e-4 2.58675,-0.0672 2.21604,-1.23841 -0.24825,-0.78428 -1.3736,-0.20948 -1.92432,-0.62945 -0.48512,-0.36994 -1.17091,-0.99884 -1.59161,-1.39415 -1.03846,-0.97579 -2.64712,-2.86747 -3.93632,-4.35309 -1.10462,-1.27293 -2.17739,-3.90619 -3.17515,-5.59535 -0.90551,-1.53302 -2.19734,-4.60237 -7.16469,-6.97223 2.79155,-0.34904 5.30977,-1.31915 4.70569,-1.73311 -0.207,-0.14185 -0.61486,-0.24936 -1.89809,-0.16599 -2.06128,0.13391 -5.77291,0.85568 -6.95803,0.478 -6.68982,-2.13194 -14.682149,-4.24302 -18.431819,-9.052579 -2.288368,-2.935201 -3.96437,-6.61211 -4.383332,-11.769051 -0.06685,-0.822805 -0.0614,-1.876024 -0.08994,-2.952537 1.586292,0.537397 2.348085,0.712324 3.183792,0.69397 0.833271,-0.0183 1.328512,-0.150263 1.722806,-0.329829 0.440463,-0.0249 0.759264,-0.04772 1.203447,-0.07557 -0.09552,0.286678 -0.225804,0.546611 -0.433042,0.631741 -0.486834,0.199983 -1.13573,0.312538 -1.725459,0.405662 -0.753144,0.118929 -1.015966,0.763031 -1.05143,1.005136 -0.102301,0.698382 0.03559,2.288571 0.57602,3.389917 0.975479,1.987937 1.663129,1.569558 2.041803,1.61028 1.005767,0.108158 1.495771,-0.625649 1.498742,-0.962484 0.0031,-0.356813 -0.288882,-0.389267 -0.620831,-0.592539 -0.227966,-0.139596 -0.44948,-0.416631 -0.708543,-0.706468 -0.52927,-0.592142 -0.637284,-1.334748 -0.69015,-1.788069 1.399628,-0.07004 1.539994,-0.492648 2.117342,-0.757385 0.638683,-0.292862 1.328459,-2.061315 1.115994,-3.696598 -0.04921,-0.378788 -0.537464,-1.231829 -0.871594,-1.371665 -0.333567,-0.1396 -0.722175,-0.180512 -2.175002,-0.191554 -0.794165,-0.006 -1.653389,0.327679 -2.208163,0.34137 -0.847413,0.02091 -2.069041,-0.515392 -3.026068,-1.123537 0.08286,-2.534447 0.340982,-5.197213 0.898169,-7.397063 2.167167,-8.556269 4.983796,-12.867354 8.481796,-17.575283 1.848492,-2.48788 4.218292,-4.869717 7.516182,-7.738394 0.82698,-0.719346 1.18215,-1.159256 0.57746,-2.073419 -0.36832,-0.41598 -1.12634,-0.644387 -1.93389,-0.571014 z"
       id="path4959"
       sodipodi:nodetypes="sssssssssssssssscssssscsccsssssssscssssscssscs" /><path
       style="color:#000000;fill:#000000;fill-opacity:1;stroke-linecap:round;stroke-linejoin:round;-inkscape-stroke:none"
       d="m 109.37643,84.176224 c -0.35091,0.01555 -0.8126,0.03882 -1.04953,0.298124 -0.49289,0.539434 -0.3989,0.699294 -0.0117,1.318963 1.91098,3.058148 4.06784,3.673585 5.764,4.271102 1.30314,0.459067 3.36564,0.689485 4.91944,0.635494 4.42956,-0.153917 4.29606,-0.748746 5.13963,-1.423832 0.57022,-0.456327 1.3699,-1.432465 1.101,-2.111489 -0.26929,-0.679942 -1.07217,-0.683955 -2.12541,-0.526901 -4.27873,0.638025 -4.50814,0.657985 -6.97682,0.286244 -2.02816,-0.305406 -2.51035,-0.583787 -4.37421,-1.576735 -0.30951,-0.164886 -2.03608,-1.186497 -2.38642,-1.17097 z"
       id="path5177"
       sodipodi:nodetypes="sssssssssss" /><path
       style="color:#000000;fill:#000000;fill-opacity:1;stroke-linecap:round;stroke-linejoin:round;-inkscape-stroke:none"
       d="m 98.923485,95.042748 c -0.788608,0.0089 -1.462812,0.309639 -1.570352,0.808311 -0.139206,0.645513 1.179839,1.083758 1.836904,1.402908 0.965013,0.468727 1.413003,0.857732 2.177573,1.384241 0.71916,0.495236 0.92015,0.315873 1.2833,-0.317936 0.1932,-0.337183 -0.13572,-1.153802 -0.60498,-1.821521 -0.53975,-0.768006 -1.91477,-1.46964 -3.122445,-1.456003 z"
       id="path5179"
       sodipodi:nodetypes="sssssss" /></g><g
     id="g3890"
     inkscape:label="hair top"
     style="display:inline"><path
       style="fill:#7ec3b8;fill-opacity:1;stroke:none;stroke-width:2.64583;stroke-linecap:round;stroke-linejoin:round;stroke-dasharray:none;stroke-opacity:0.5;stop-color:#000000"
       d="m 80.469395,65.255798 1.530927,-8.420103 11.960373,-9.376933 10.429445,-5.453931 3.34891,0.669783 -0.76547,2.774807 3.15754,4.401417 4.40142,18.849549 7.55896,9.472615 8.80283,3.82732 -0.47842,7.176225 -6.41075,6.219393 -6.7935,0.09568 2.77481,3.82732 6.69781,1.91366 -0.84023,7.96756 2.43569,7.84834 7.57771,6.22454 -0.40595,16.37326 3.65353,4.60075 11.36657,2.97696 -0.40595,-2.97696 4.46543,-5.27733 1.21784,-7.71302 -5.41264,-7.30708 5.68328,-0.8119 5.14201,-4.73606 -1.48848,-3.78886 h 3.78886 l 14.74946,-2.30037 7.71302,5.68328 14.74947,22.46249 5.14201,10.68997 7.44239,1.89443 9.06619,-2.30037 v -2.16506 l -10.8253,-6.08923 -2.84164,-7.17176 -1.08253,-8.3896 9.60745,8.66023 8.52492,6.49518 1.48848,-1.75911 1.89443,-4.33012 10.01339,17.99706 1.21785,9.74276 -2.02974,7.57771 8.79555,-4.33012 9.33681,-10.0134 3.51822,-6.22454 8.93088,4.60075 5.14202,-4.19481 0.8119,-5.81859 -2.4357,-3.78885 -2.57101,-15.69668 -8.79556,-8.79555 -23.54501,-7.30708 -5.41265,-6.08923 1.21785,-7.307072 8.79555,-9.066185 -3.78885,-13.396302 -12.04314,-6.089229 -19.89148,0.676582 -11.50188,-8.52492 -12.31377,-2.571006 -13.9481,-21.397259 -10.52513,-8.611468 -12.19746,-0.03147 -16.23794,-3.653536 -17.18515,2.435691 -15.020098,9.878081 -11.637193,0.676582 -10.284031,11.095926 1.759112,12.04314 z"
       id="path3946" /><path
       style="color:#000000;fill:#000000;fill-opacity:1;stroke:none;stroke-linecap:round;stroke-linejoin:round;stroke-opacity:1;-inkscape-stroke:none"
       d="m 123.94617,61.447153 c -0.82844,0.289575 -0.612,1.334268 -0.41446,2.189339 0.21561,0.933371 1.54708,5.5248 2.67779,8.324909 1.4133,3.499884 2.70976,6.368552 2.97468,9.71285 0.22576,2.850051 0.15383,4.366794 -0.41719,6.250998 -0.25901,0.854655 -0.66867,1.553477 -1.54293,2.58742 -0.71281,0.843007 -2.05696,1.752783 -2.7691,2.120996 -0.70666,0.365382 -2.03715,1.174013 -4.23766,0.888564 -1.49474,-0.193897 -1.33065,-0.388354 -2.57303,-0.429121 -0.80393,-0.02638 -1.39014,0.32098 -1.76921,0.708962 -0.41608,0.42586 -0.81382,1.409672 -0.46998,2.905887 0.16776,0.729997 0.78001,1.581849 1.36393,2.239168 0.87849,0.988931 2.10235,1.613835 2.95926,2.085335 1.59685,0.87865 3.50857,1.32409 5.10839,1.49187 -0.12632,1.79524 -0.8641,5.04246 -0.75581,6.79122 0.15242,2.4615 1.16153,5.19756 1.80075,6.3784 1.41409,2.61228 2.43233,3.53292 3.62299,4.57372 1.51467,1.32403 3.08617,1.99074 3.75799,2.97864 0.33467,0.49211 0.82613,2.24339 0.80794,3.10689 -0.0602,2.85914 -0.64648,5.10629 -0.72203,8.6064 -0.0633,2.93408 0.38858,5.70184 2.13587,8.02579 1.51223,2.0113 3.33549,3.06215 4.73927,3.49097 1.49247,0.45591 2.92182,0.62895 3.88155,0.9268 1.83036,0.56804 2.98807,1.33191 3.45406,1.53251 1.89629,0.80489 2.58089,1.26053 3.05387,-0.0966 1.20841,0.33622 2.05328,-0.20384 2.27649,-1.43135 0.23714,-1.30412 -0.48629,-1.67209 -1.24752,-2.59334 1.4119,-0.95698 2.73347,-1.83328 3.36829,-2.67187 0.73178,-0.96668 1.03312,-1.89194 1.34688,-2.5 1.69106,-3.27722 1.24038,-7.14647 0.62967,-8.79178 -0.53791,-1.44915 -1.58431,-3.35726 -2.79744,-4.52287 -0.31119,-0.299 -0.84742,-1.2575 -0.88597,-1.40068 1.78363,-0.16398 3.29875,-0.712 4.65587,-1.35611 1.81263,-0.86032 2.54824,-1.70731 2.90241,-2.02408 0.57206,-0.51165 1.05973,-1.02691 2.06459,-2.02725 0.34468,-0.34313 1.57808,-1.90236 -0.46842,-2.81231 0.0206,-0.17945 0.0244,-0.36705 0.0479,-0.50482 0.83651,-0.0586 1.33886,0.0405 2.59216,-0.20379 1.13801,-0.22182 3.2671,-0.73849 4.95499,-1.17728 2.57572,-0.66961 3.94802,-1.35865 7.42929,-1.52034 4.16751,-0.19357 5.46419,0.68138 7.99029,2.06596 2.30044,1.26089 3.73302,2.45758 4.81063,3.5384 1.11807,1.12141 1.24426,1.9477 2.16193,3.10023 0.7928,0.99571 2.65896,0.46763 2.83594,-0.76953 0.23397,-1.63555 0.49846,-2.44934 0.74735,-4.72681 0.20077,-1.83722 -0.23281,-3.9439 -0.31299,-4.19605 -0.52998,-1.66661 -0.89641,-4.32613 -4.68649,-9.55718 -1.58719,-2.19064 -3.25727,-3.734626 -5.56349,-4.631089 -0.82584,-0.294001 -1.69668,-0.43497 -2.00395,0.217583 -0.20254,0.43015 1.39036,2.545856 1.99968,3.176066 0.80012,0.82754 2.73799,2.45814 3.85121,4.19412 1.50731,2.35055 2.91364,5.21866 3.46031,7.83439 0.24393,1.16718 0.11943,3.55881 0.11943,3.55881 -1.88847,-1.75775 -3.28137,-2.98932 -5.80837,-4.24503 -4.90309,-2.43643 -8.25996,-2.4643 -11.93619,-1.9999 -3.68485,0.50995 -5.7301,1.57492 -10.16903,2.33625 -2.74721,0.47119 -4.44804,0.90728 -9.36552,-0.39817 -1.42495,-0.37828 -2.91189,-1.02334 -4.46107,-2.36961 -1.02163,-0.88781 -1.87423,0.40822 -1.84748,1.7218 0.0546,2.68011 0.87184,3.99636 1.55059,4.58219 1.94484,1.67862 2.87422,2.03094 3.62503,2.32419 2.00082,0.78146 3.37494,0.60731 4.02442,0.65515 -0.0306,0.36553 -0.4532,0.78184 -1.42844,1.29605 -2.02312,1.06672 -4.77462,1.1283 -6.96245,0.72526 -1.74269,-0.32104 -2.87095,1.18751 -1.63072,2.7753 0.19005,0.2433 0.87646,0.73211 1.05933,0.96033 2.36057,2.94594 4.06715,5.24471 4.27423,5.92349 0.48036,1.57451 0.6316,3.22978 0.15442,4.89055 -0.24141,0.84022 -0.78459,2.27379 -1.59775,3.41621 -0.70045,0.98408 -1.31948,1.26069 -2.41096,2.30878 -0.56535,0.54287 -1.45818,1.45068 -1.48695,2.72418 -0.19567,-0.0241 -0.40693,-0.002 -1.00335,-0.16307 -0.94318,-0.25523 -0.85446,-0.32184 -2.48264,-0.8148 -1.98144,-0.59992 -2.73901,-0.53922 -3.77221,-0.95689 -1.49232,-0.60327 -2.18676,-1.10683 -3.08903,-2.47147 -0.93313,-1.41132 -1.30524,-3.08449 -1.19787,-5.43859 0.13387,-2.93524 0.75237,-5.51122 0.76353,-8.53581 0.007,-1.78814 -0.26581,-3.16459 -0.88724,-4.19638 -0.75107,-1.20033 -1.28093,-2.30697 -2.82124,-3.17541 -1.53876,-0.86757 -3.37956,-2.52081 -3.7586,-2.98126 -0.773,-0.93903 -1.30325,-1.76897 -1.67674,-2.56887 -0.66292,-1.41974 -0.76658,-2.4947 -0.86484,-3.93579 -0.19523,-2.86329 0.89281,-6.961 0.40438,-8.4922 -0.30661,-0.96122 -1.31813,-1.655548 -1.6945,-1.702885 -1.85788,-0.233674 -2.7172,-0.205633 -3.4313,-0.486711 -1.7371,-0.683739 -3.14032,-1.14277 -3.18307,-2.016994 0.33899,0.08892 1.39203,0.101652 1.80837,0.09129 1.70087,-0.04231 2.48692,-0.29122 4.17262,-1.162814 1.61947,-0.837355 2.76954,-1.847104 3.98637,-3.054531 1.11372,-1.105122 1.68985,-2.710327 1.85569,-3.062415 0.34623,-0.735082 0.95607,-2.932633 1.01396,-4.121866 0.12209,-2.507976 -0.13235,-5.365094 -0.84076,-7.431646 -1.48362,-4.327964 -3.4068,-9.203831 -4.56572,-11.380582 -0.69692,-1.308997 -1.09361,-3.351297 -1.46674,-4.084516 -0.33007,-0.866912 -1.15092,-1.368 -1.79811,-1.141779 z"
       id="path4257"
       sodipodi:nodetypes="csssssssssssscsssssssssccscsssscsssccsssssssssscsssscscsssssscsssssssscsssssscssssssscssssssscsc" /><path
       style="color:#000000;fill:#000000;fill-opacity:1;stroke:none;stroke-linecap:round;stroke-linejoin:round;stroke-opacity:1;-inkscape-stroke:none"
       d="m 135.84766,22.634766 c -4.21962,-0.228623 -4.18318,-1.138831 -18.53705,1.483473 -0.355,0.05168 -0.79302,-0.914137 -0.76353,-1.587915 -0.87082,0.05548 -2.20366,0.400029 -2.40507,0.471554 -9.74626,3.461168 -13.37308,7.472704 -13.91623,7.7798 -0.967469,0.49198 -2.419938,2.384779 -2.644757,2.435428 -0.439882,0.0991 -1.13072,0.903917 -1.2643,1.249578 -0.07527,0.194774 -0.615049,0.05308 -0.814911,0.03865 -4.219014,-0.304667 -6.643882,-0.217857 -9.81834,0.379229 -1.563932,0.252625 -2.511421,0.709095 -3.218021,1.312413 -0.895431,0.159188 -3.493978,1.576412 -6.004927,4.477011 -0.666219,0.186693 -1.103406,0.620498 -1.380607,1.376369 -0.248811,-0.0098 -1.211515,1.021866 -1.545728,1.495289 -0.803249,1.137831 -1.085079,2.322093 -1.19944,4.108517 -0.237715,3.71331 0.708409,6.522216 1.066695,8.361567 0.421061,2.161622 1.155964,2.009447 1.408124,3.503139 0.412903,2.445867 2.397665,5.023553 2.843055,7.393231 0.226286,1.203944 0.238802,2.932444 1.265793,3.738452 1.147739,0.900773 3.343544,0.645169 4.087316,-2.867675 0.641989,-3.032117 -1.898251,-5.519146 0.40058,-9.886184 0,0 0.902515,-1.490691 1.851162,-2.425351 3.283336,-3.234927 10.71638,-7.730228 14.391268,-9.828471 2.458478,-1.403715 5.748698,-2.26436 6.328748,-2.232092 0.38624,0.02149 0.43775,0.370694 0.41906,0.985997 -0.44486,0.170768 -0.81777,0.06764 -1.53196,0.487485 -0.88043,0.517563 -0.22349,1.850083 0.76466,2.108106 3.55163,0.927388 3.77198,5.105637 3.88392,5.738564 0.18084,1.022455 1.10124,8.608553 2.64644,13.362057 1.57794,4.854215 2.42152,7.597353 7.42209,11.813586 0.66743,0.562744 5.14362,3.014017 6.14794,3.306235 0.30016,0.08733 2.01596,1.186462 3.66796,1.53576 1.45561,0.307771 2.91395,0.513551 3.10293,0.09128 0.28641,-0.639984 0.89867,-1.368709 -1.07846,-2.690738 -0.38406,-0.256806 -1.36451,-1.080867 -2.32189,-1.32907 -0.96792,-0.250935 -1.83828,-0.766607 -2.16223,-0.836704 -0.80992,-0.175257 -4.35345,-2.02044 -4.73384,-2.273488 -1.89044,-1.257582 -3.47503,-2.621683 -4.35414,-4.184557 -2.48825,-4.423631 -3.31286,-8.190054 -3.70081,-9.980675 -0.93127,-4.298402 -1.46315,-8.435847 -2.18714,-10.96325 -0.53281,-1.859998 -1.78917,-3.702614 -3.42833,-4.795036 0.8845,-0.36377 0.98473,-0.762831 0.99177,-1.202683 0.0108,-0.671417 -0.95937,-2.482012 -1.50439,-3.051826 -0.49353,-0.515978 -1.68948,-0.879371 -2.39949,-0.803932 -4.18289,0.444439 -8.266905,2.959588 -10.697616,4.480905 -2.982426,1.866621 -6.648111,4.287786 -9.107409,6.087553 -2.574403,1.884005 -4.257045,4.236456 -4.9282,5.273773 -0.467204,0.730046 -1.231289,3.067314 -1.258936,3.343781 -0.67425,-1.64302 -1.197412,-3.99009 -1.244683,-6.437363 -0.07546,-3.906509 0.468311,-5.747909 1.614933,-9.044085 0.85246,-2.450551 2.534943,-5.105299 8.877847,-5.841901 0.908509,-0.105505 1.912446,-0.364104 2.616679,-0.433603 3.604376,-0.355708 4.165083,-0.368871 6.476146,-0.08971 0.324282,0.03917 1.279115,-0.796439 1.463766,-1.065879 2.039673,-2.97625 4.653623,-4.940277 9.093643,-6.838268 3.43172,-1.46697 10.76454,-2.899399 12.37383,-3.193098 8.83377,-1.612186 10.52462,-1.503208 14.7449,-1.159451 1.62743,0.13256 6.76276,1.309722 9.19916,2.627718 1.24635,0.674222 1.89576,0.342196 2.31288,0.220426 0.83687,-0.244308 4.0436,-1.264039 6.64451,-0.807388 4.41435,0.775041 7.22706,2.895407 10.06662,5.356216 1.68219,1.457821 4.10301,4.397954 4.10301,4.397954 1.78671,1.317337 2.83232,-0.486064 2.29002,-1.726422 -0.32058,-0.733245 -0.41593,-0.03853 -1.11905,-1.308061 -1.03444,-1.867721 -2.7987,-3.223951 -3.6454,-3.92196 -3.71583,-3.063309 -4.88298,-3.923203 -7.98941,-4.99034 -1.28809,-0.442489 -2.87752,-0.740487 -3.95959,-0.811151 -3.96059,-0.258641 -6.53806,0.735122 -6.87084,0.725061 -0.10067,-0.003 -0.4635,-0.105057 -0.5561,-0.147975 -2.17003,-1.005792 -4.77618,-1.715873 -6.35046,-2.130189 -0.91158,-0.232848 -2.88228,-0.556429 -3.92417,-0.65967 z"
       id="path4259"
       sodipodi:nodetypes="cccscsssccccssssssssssscssssssssssssssscsssssccssssssssssssscsssssssccc" /><path
       style="color:#000000;fill:#000000;fill-opacity:1;stroke:none;stroke-linecap:round;stroke-linejoin:round;stroke-opacity:1;-inkscape-stroke:none"
       d="m 184.39328,55.059258 c -1.47144,0.01985 -3.6184,0.559485 -5.58956,1.168594 -0.83804,0.258965 -2.51368,0.990078 -2.38269,1.857384 0.13102,0.867533 0.62812,1.482149 1.50414,1.433518 7.17552,-0.398338 10.19815,0.641035 14.41636,2.317157 3.44502,1.368888 5.49747,3.105945 5.86081,3.280471 2.01963,0.970087 2.36743,3.044985 5.74147,7.156467 0.50174,0.611407 2.92072,1.18837 4.31213,0.116011 0.97242,-0.749445 1.29383,-1.278416 1.60579,-1.776129 0.46588,-0.743276 0.60529,-1.326894 0.12655,-2.06195 -0.4782,-0.735409 -1.4622,-0.943582 -2.19726,-0.464844 l -2.01654,-0.0046 c -3.83338,-6.405213 -9.05107,-9.762068 -10.44947,-10.398538 -4.04475,-1.513749 -6.5922,-2.682081 -10.93173,-2.623541 z"
       id="path4261"
       sodipodi:nodetypes="sssssssssccccs" /><path
       style="fill:#f4a6e4;fill-opacity:1;stroke:none;stroke-width:2.64583;stroke-linecap:round;stroke-linejoin:round;stroke-dasharray:none;stroke-opacity:0.5;stop-color:#000000"
       d="m 150.62895,84.703366 -4.66455,5.525693 -2.17679,6.028029 1.55485,1.889738 3.51635,-2.105025 4.83199,-1.172117 2.87049,-6.028028 -0.98075,-4.329655 -3.08577,-0.717622 z"
       id="path5225"
       inkscape:label="path5225" /><path
       style="color:#000000;fill:#000000;fill-opacity:1;stroke-linecap:round;stroke-linejoin:round;-inkscape-stroke:none"
       d="m 153.19336,82.444628 c -0.72878,0.04991 -2.14408,0.995869 -2.56418,1.593468 -0.23473,0.333918 0.0103,1.443893 0.72037,1.272451 1.93932,-0.468228 2.36448,-0.268657 2.65826,0.125 0.37852,0.507218 0.467,0.574006 0.56644,1.301849 0.10539,0.771332 0.23705,1.989518 0.12575,2.995307 -0.11102,1.003318 -0.53948,1.950044 -0.9568,2.580804 -1.39641,2.11058 -5.70403,2.653844 -7.61027,2.920367 -0.92067,0.128725 -1.25335,0.785831 -1.63146,1.635088 -0.87633,3.802838 1.37411,4.201558 3.77784,0.916197 3.97238,-0.377553 5.1314,-1.414898 5.48512,-1.684598 0.877,-0.668677 1.8957,-1.433653 2.49142,-2.371778 1.5077,-2.374251 1.46462,-4.383291 1.13285,-6.91823 -0.16097,-1.178149 -0.6902,-2.727316 -1.86177,-3.681862 -1.09113,-0.889014 -2.21106,-0.691588 -2.33357,-0.684063 z"
       id="path5181"
       sodipodi:nodetypes="csssssssccsscsc" /><path
       style="color:#000000;fill:#000000;fill-opacity:1;stroke-linecap:round;stroke-linejoin:round;-inkscape-stroke:none"
       d="m 151.2843,88.840338 c -0.97464,-2.93e-4 -1.34757,0.921211 -2.15355,1.342554 -1.0402,0.54379 -2.9892,0.949281 -2.29953,1.904504 0.42771,0.592402 1.06236,0.801319 1.77532,0.641421 1.68683,-0.378311 2.17959,-0.65084 3.13971,-1.799812 0.45486,-0.54433 0.40073,-1.184377 0.21143,-1.558175 -0.21437,-0.423285 -0.33207,-0.53039 -0.67338,-0.530492 z"
       id="path5183"
       sodipodi:nodetypes="sssssss" /><path
       style="color:#000000;fill:#000000;fill-opacity:1;stroke:none;stroke-linecap:round;stroke-linejoin:round;stroke-opacity:1;-inkscape-stroke:none"
       d="m 190.88645,64.9435 c -0.87169,-0.09832 -2.15931,0.232976 -2.19746,0.782035 -0.0608,0.875111 0.7699,0.941097 1.79867,1.384162 2.21667,0.954665 4.15999,2.104965 6.6139,2.843428 2.45392,0.738463 5.6688,1.066052 8.02151,1.24767 4.93497,0.380957 11.77518,-0.738176 16.95946,-0.731396 5.87153,0.0077 8.93617,1.155554 11.7491,3.827612 2.44939,2.326724 3.58612,4.224639 4.38986,6.568841 0.93457,2.725781 0.97108,3.563219 0.9535,4.588003 -2.06301,-1.602551 -2.53976,-1.967777 -3.76552,-2.008242 -1.69843,-0.05607 -2.40031,1.741065 -1.38655,3.104904 0.84781,1.14057 1.74067,1.732623 2.07876,2.276054 0.32455,0.52167 0.39436,1.050774 -0.26157,2.184522 -2.68767,4.492055 -5.82947,6.817189 -6.15345,11.225707 -0.0952,1.29568 0.4625,2.7991 1.11243,4.04639 0.98043,1.88153 4.18506,4.5432 6.92938,5.74061 4.34887,1.89752 14.43036,4.44066 21.66481,6.77496 2.6211,0.84573 5.17125,2.55499 6.37534,4.56746 3.82158,6.3873 4.47636,12.29283 4.84614,19.64324 0.0179,0.35653 -0.0611,1.05874 0.96697,1.95625 0.7018,0.61263 1.24692,1.60749 1.02069,3.20853 -0.43274,2.07708 -0.9369,4.20786 -3.23729,4.89965 0.12153,-4.46963 -0.17256,-6.24469 -1.8337,-9.55627 -0.7665,-1.52928 -2.81205,-4.19624 -4.56938,-4.33978 -1.26983,-0.10372 -2.15919,0.21894 -2.07945,1.49051 0.13679,2.1814 0.91276,3.73566 1.32333,6.4719 0.15895,1.0593 0.3432,1.70612 0.12698,2.61499 -0.92333,-1.34924 -2.11324,-3.73696 -2.84021,-4.31064 -1.55968,-1.23081 -3.07319,0.0799 -2.41292,2.13579 0.21288,0.66285 0.54833,1.43767 0.5566,2.24056 0.008,0.76443 -0.13867,1.69183 -0.93694,3.31461 -1.30417,2.65124 -3.51678,5.74355 -5.50684,7.89115 -1.48493,1.60246 -3.74279,3.48084 -6.67792,5.35798 -1.37483,0.87927 -3.48744,1.97928 -4.26404,2.24116 0.35176,-1.32043 1.11129,-2.41387 1.24711,-4.57086 0.34259,-5.44061 0.0759,-5.83459 -0.57204,-8.24633 -1.88808,-7.02782 -7.59021,-16.91921 -8.63373,-18.84921 -0.99206,-1.83482 -4.8947,-6.69758 -6.4675,-7.0222 -1.40383,-0.28974 -3.07998,-0.14242 -2.69352,2.23047 0.0738,0.45322 1.87002,3.10043 2.18503,4.64221 0.25551,1.2506 0.4669,2.36294 0.37057,3.08053 -4.04086,-1.51205 -6.78362,-4.85937 -8.80518,-7.04413 -2.11597,-2.28735 -4.42739,-4.43155 -6.18906,-5.69387 -1.01336,-0.71595 -1.82314,-1.7282 -2.63319,-2.14536 -1.09668,-0.56477 -2.37995,0.1421 -2.87282,1.2882 -0.51793,1.20439 0.35766,7.30934 1.81718,11.37939 1.04679,2.91908 4.41296,7.80569 7.05709,9.60005 1.23783,0.84001 2.7129,1.90376 5.22226,2.3818 -0.75051,0.65761 -1.79101,1.13458 -3.28414,1.51672 -1.98882,0.50899 -4.295,0.20822 -6.69137,-0.80597 -1.11001,-0.46977 -2.66177,-0.18225 -2.98909,0.73215 -0.4117,1.15011 0.3393,2.18304 1.15271,2.51067 6.41348,2.58325 8.12092,1.68952 10.61749,0.89269 3.69637,-1.17976 5.24235,-2.85893 6.05533,-4.48451 0.40715,-0.85827 -0.11271,-3.10735 -2.0564,-3.55489 -2.8762,-0.66226 -4.18784,-1.12275 -6.26925,-2.66947 -2.71171,-2.0151 -4.54209,-5.7749 -5.06641,-6.91276 -0.97666,-2.11951 -1.51599,-4.45562 -1.78457,-6.26077 1.31488,0.4711 3.55696,2.96925 4.71642,4.18055 2.08083,2.17387 4.60908,5.10108 7.37389,6.80775 1.24954,0.74507 3.41929,2.07899 4.82826,1.95272 3.21545,-0.28814 3.28363,-3.11291 3.32625,-3.9999 0.50917,0.016 1.43513,1.6669 2.09541,3.06122 0.51408,1.08561 0.96682,1.78873 1.24382,2.48871 1.39843,3.53369 3.42698,5.37665 5.15314,11.40342 0.68943,2.40713 1.05012,4.54872 0.44711,8.03638 -0.44082,2.54956 -1.34746,4.66407 -3.23684,6.14179 -0.60117,0.47019 -0.19407,2.84303 1.20595,2.86864 2.44218,0.0447 4.16919,-1.11392 4.83488,-1.51414 1.71248,-1.02957 2.85565,-1.47542 4.53637,-2.48668 2.86739,-1.72526 6.05834,-4.08535 8.31641,-6.62 1.95391,-2.25648 3.41985,-4.38929 5.02252,-6.92292 0.46841,1.9627 2.96421,2.22134 3.72152,0.72656 1.28908,0.44679 1.74246,0.75179 3.77572,0.25669 0.67199,0.56321 1.61141,0.4311 2.12671,0.19056 0.46709,-0.21502 1.13953,-0.49567 1.73047,-0.75782 0.29547,-0.13107 0.57072,-0.25725 0.82226,-0.38867 0.12577,-0.0657 0.24305,-0.12914 0.38086,-0.2207 0.0436,-0.029 0.13603,-0.15351 0.1875,-0.18555 1.28917,-0.48822 2.11101,-1.54097 2.89649,-2.47461 2.15619,-2.56287 2.73824,-7.49524 -0.52734,-11.75757 -1.2506,-11.19585 -1.40155,-14.86151 -5.83723,-21.10993 -1.88308,-2.65266 -5.08685,-4.35804 -7.26596,-5.03649 -16.45457,-4.84337 -17.8667,-4.76818 -22.8327,-7.51701 -0.98927,-0.54758 -1.75559,-1.10479 -2.22497,-1.67482 0.0196,-0.51032 -0.40666,-1.46161 -1.55064,-1.81205 -0.0948,-0.59687 -0.1836,-1.60547 -0.12106,-2.26105 0.27639,-2.897339 1.74127,-4.381032 1.92662,-4.806062 0.24332,-0.588038 2.64489,-3.811474 2.728,-4.354097 1.29785,1.639023 1.96992,1.334249 2.89892,1.327792 5.19785,-0.03613 4.61529,-12.188012 1.94468,-16.024162 -4.43822,-6.375203 -7.2222,-7.934843 -10.25398,-9.51212 -6.21071,-3.231115 -15.85369,-3.605934 -20.27371,-2.789475 -3.4931,0.645242 -5.02165,0.756349 -9.89342,1.356305 -2.17601,0.267975 -2.82997,0.314329 -5.17189,-0.281551 -2.28542,-0.5815 -5.29417,-1.761409 -7.13113,-1.96861 z"
       id="path4263"
       sodipodi:nodetypes="sssssssscssscssssssscccssscsssssscsssssscccsssscssssscssscscscsssssssscccccssscscscsccsccsssssss" /><path
       style="color:#000000;fill:#000000;fill-opacity:1;stroke:none;stroke-linecap:round;stroke-linejoin:round;stroke-opacity:1;-inkscape-stroke:none"
       d="m 147.66817,70.04547 c -0.50801,0.679734 0.57355,1.485709 1.11909,1.871488 0.0702,0.04967 1.05633,1.109485 1.3143,2.199015 0.85683,3.618922 0.13188,5.601413 -0.31152,7.32781 -0.91788,3.573796 -3.20057,5.794961 -4.63006,7.731086 -0.66324,0.89831 -1.57639,2.415269 -1.87062,3.260708 -0.29184,0.877862 -0.81383,2.821069 -0.78076,3.666295 0.0713,1.821862 0.11137,3.394658 1.24042,5.020738 0.80134,1.15412 1.71168,1.39345 2.58501,0.47114 0.57864,-0.61109 1.19986,-1.14235 1.97852,-2.5625 0.35122,-0.640558 0.33987,-1.408912 -0.23828,-1.855469 -0.57815,-0.446557 -1.40929,-0.340158 -1.85547,0.238281 l -0.65234,0.845704 c -0.43189,0.559903 -0.9333,-1.266104 -0.54602,-2.756862 0.33213,-1.278498 0.94896,-3.496356 1.89165,-4.681218 1.79949,-2.261769 3.78106,-4.080857 5.13768,-8.2791 0.48715,-1.507564 0.78661,-3.087214 0.85456,-3.594031 0.33639,-2.508759 0.073,-2.892956 -0.0643,-3.776883 -0.14243,-0.917029 -0.33437,-1.789253 -0.83945,-2.543867 -0.71718,-1.071511 -1.17687,-1.907604 -2.5136,-2.576659 -0.64347,-0.322064 -1.46674,-0.476682 -1.81876,-0.0057 z"
       id="path4265"
       sodipodi:nodetypes="ssssscssssssssssssssss" /><path
       style="color:#000000;fill:#000000;fill-opacity:1;stroke:none;stroke-linecap:round;stroke-linejoin:round;stroke-opacity:1;-inkscape-stroke:none"
       d="m 168.89582,79.05658 c -0.41314,0.61719 0.32451,1.108375 1.07942,1.658324 0,0 3.07354,2.528195 4.30406,4.082232 1.713,2.163365 3.66871,5.358355 3.21712,4.4076 -0.29707,-0.625416 0.33217,0.659125 1.12799,1.795837 0.51354,0.733513 1.11819,1.25833 1.37114,1.062138 0.23205,-0.384965 0.44966,-1.126864 0.0895,-2.418461 -0.70832,-2.540337 -1.82299,-4.48874 -3.43341,-6.361832 -1.27076,-1.478036 -3.3282,-3.50697 -5.24833,-4.226865 -1.14749,-0.430216 -2.12345,-0.572722 -2.50751,10e-4 z"
       id="path4267"
       sodipodi:nodetypes="ssssscssss" /><path
       style="color:#000000;display:inline;fill:#000000;fill-opacity:1;stroke:none;stroke-linecap:round;stroke-linejoin:round;stroke-opacity:1;-inkscape-stroke:none"
       d="m 184.95784,72.144995 c -0.73018,0.593315 -1.26867,1.211168 -1.54571,2.401376 -0.2123,0.91208 0.43804,2.05401 1.03267,2.589361 0.55956,0.503775 1.94623,0.942708 2.58773,0.909673 1.36635,-0.07036 1.40378,-0.446076 2.26637,-0.581523 1.02138,-0.160381 2.18826,-0.164456 2.16944,-0.749095 -0.0145,-0.451672 -1.444,-1.461337 -2.0269,-1.485744 -1.40718,-0.05892 -1.94287,1.192181 -3.43686,0.22703 -0.84828,-0.548009 0.27623,-1.555992 0.66898,-1.93897 0.41829,-0.407877 0.56763,-1.088385 0.12714,-1.472173 -0.45309,-0.394764 -1.56932,-0.122207 -1.84286,0.100065 z"
       id="path4269"
       sodipodi:nodetypes="sssssssssss" /></g><g
     id="g14677"
     inkscape:label="hand"
     style="display:inline"><path
       style="fill:#f4a6e4;fill-opacity:1;stroke:none;stroke-width:2.64583;stroke-linecap:round;stroke-linejoin:round;stroke-dasharray:none;stroke-opacity:0.5;stop-color:#000000"
       d="m 113.02284,168.23184 -8.45726,3.65354 3.17993,2.87547 -4.83755,3.34908 3.65353,2.77398 -0.94721,2.30037 8.72789,0.47361 -1.35316,4.36395 9.91191,-1.65763 6.19072,1.6238 6.2922,4.76989 0.60892,-10.21637 -0.60892,-1.96208 -10.96061,-7.57771 -8.79555,-4.73607 z"
       id="path14463" /><path
       style="color:#000000;fill:#000000;fill-opacity:1;stroke-linecap:round;stroke-linejoin:round;-inkscape-stroke:none"
       d="m 114.1553,167.07477 c -2.21237,-0.0635 -3.9004,0.7778 -5.85706,1.48913 -1.28435,0.46692 -2.66638,1.03949 -3.75774,1.57419 -1.09136,0.53469 -1.95243,0.90854 -2.6159,1.68299 -0.68544,0.80012 -0.0308,2.28557 0.99013,2.54595 1.25327,0.31965 1.63604,0.50433 3.01837,0.5479 -0.93058,0.77689 -1.89089,1.12655 -2.57106,1.61716 -1.2752,0.91981 -2.90082,2.11934 -2.28443,3.69889 0.54024,1.3844 2.78447,0.89655 4.22022,0.69561 -0.42675,0.70258 -0.76142,1.20088 -0.92486,1.85157 -0.22349,0.88978 0.47748,1.75657 1.39449,1.78379 3.47557,0.10317 4.24383,-0.0185 6.69303,-0.20308 -0.50143,0.56448 -1.12524,1.0184 -1.63699,1.39395 -0.89542,0.65711 -1.69958,1.0442 -1.86963,2.21885 -0.12696,0.87695 0.68406,1.55689 1.56371,1.4502 4.45586,-0.54043 8.9687,-1.64447 11.81887,-1.74414 2.17449,-0.076 3.17932,0.40089 4.26217,0.77878 0.56998,0.1989 1.29395,0.5042 1.53322,0.91893 0.0168,0.71432 -0.5274,4.70998 -0.33067,7.04639 0.12223,1.45159 0.13469,3.06788 0.53326,4.40977 0.58937,1.98423 1.72495,3.46782 2.88352,3.73992 0.46959,0.11029 2.21941,0.27733 3.87414,-3.4407 0.0753,-0.16929 0.1505,-0.34664 0.22532,-0.53242 1.23326,-3.06211 1.81418,-8.28459 1.82712,-8.76637 0.0646,-2.40729 0.24953,-4.15984 -0.0717,-7.00932 -0.15752,-1.39728 -0.65615,-3.23278 -0.94374,-4.61318 -4.59937,-2.60426 -8.99157,-6.78201 -13.53321,-9.76479 -2.72209,-1.78776 -5.45187,-3.2842 -8.44056,-3.36997 z m 20.38615,14.75239 c 0.23303,0.80502 0.25692,2.17291 0.28136,3.17062 0.0553,2.25964 0.0142,4.00469 -0.0632,4.91605 -4.93443,-2.90566 -6.94461,-4.36711 -11.94687,-4.53324 -2.43679,-0.0809 -4.47342,0.6296 -6.91178,0.99508 -0.11468,-0.3803 0.0277,-0.68193 0.18427,-0.80553 0.33466,-0.26418 4.38484,-1.28403 6.3073,-1.8883 1.48235,-0.46594 1.31768,-2.45259 -0.23586,-2.42134 -2.07,0.0416 -10.79421,0.70872 -15.53275,1.25092 0.21334,-0.37992 1.13232,-1.90054 1.36743,-2.04483 0.16633,-0.10208 1.57659,-0.199 1.94933,-0.28406 3.59598,-0.82062 7.80232,-0.88638 10.35143,-1.52625 2.64154,-0.66307 -0.2463,-1.83816 -2.41361,-1.97216 -2.77638,-0.17165 -12.13155,1.71425 -11.85979,1.52145 0.0305,-0.50454 0.80103,-0.9023 2.1098,-1.50067 1.61387,-0.73786 4.43987,-1.99187 5.23243,-2.00969 1.70708,-0.0384 4.94105,1.0675 7.73057,1.4494 1.94303,0.266 2.28347,-1.03946 1.09399,-1.88487 -2.40313,-1.70142 -5.54832,-2.02876 -8.78125,-2.26758 -1.73175,-0.12792 -3.70176,0.0177 -5.56176,0.25349 -0.0333,-0.65134 1.23072,-1.12583 2.35848,-1.53075 1.01269,-0.3636 1.85525,-0.72009 2.59453,-0.83139 1.91545,-0.28838 3.39183,-7.5e-4 5.25406,0.96763 1.93463,1.00604 3.65649,2.1307 5.74815,3.30213 4.72573,2.64661 8.09329,5.6581 10.74375,7.67389 z"
       id="path14453"
       sodipodi:nodetypes="csssscsscsscssssscssscssscssccscscssscsssscssscscsssscc" /><path
       style="fill:#000000;fill-opacity:1;stroke:none;stroke-width:2.64583;stroke-linecap:round;stroke-linejoin:round;stroke-dasharray:none;stroke-opacity:0.5;stop-color:#000000"
       d="m 136.29722,181.62815 c 3.70186,0.83891 7.18037,2.05773 10.68998,3.21375 3.4395,1.13293 6.13793,2.87663 9.30299,3.52668 0.98363,0.20202 2.02331,0.79623 2.74015,0.093 1.11099,-1.08985 0.0486,-6.30782 -0.62578,-4.90521 -0.52322,1.08825 -0.88247,1.23099 -1.92116,1.71876 -0.7409,0.34792 -1.65329,-0.0809 -2.42588,-0.45017 -1.81802,-0.86901 -4.33513,-1.94746 -7.37473,-2.92621 -2.89746,-0.93298 -5.7227,-1.68426 -8.73165,-2.25869 -1.08807,-0.20772 -2.15867,-2.13372 -2.91475,-1.32415 -0.62551,0.66978 -0.26481,2.5683 0.44899,3.14306 0.23859,0.19211 0.5131,0.10145 0.81184,0.16915 z"
       id="path14459"
       sodipodi:nodetypes="ssssssssssss" /><path
       style="fill:#000000;fill-opacity:1;stroke:none;stroke-width:2.64583;stroke-linecap:round;stroke-linejoin:round;stroke-dasharray:none;stroke-opacity:0.5;stop-color:#000000"
       d="m 134.89332,201.55345 c 1.41749,-0.12438 3.12876,-0.22079 4.80372,-0.18605 2.63958,0.0547 5.65893,0.25596 8.59548,0.92449 1.88584,0.42933 4.61894,1.42339 4.79839,1.56052 0.19392,0.14819 0.78547,0.58828 1.76234,-0.58607 0.46403,-0.55784 0.50049,2.41824 0.4559,2.73074 -0.6453,4.52245 0.75993,9.65423 -2.41998,10.43352 -1.33494,0.32715 -1.35513,0.13491 -1.95012,-0.91566 -0.45232,-0.79865 -0.82519,-1.86172 -1.39901,-3.01253 -0.55469,-1.11246 -1.31661,-2.13088 -1.88472,-3.15982 -0.53949,-0.97709 -1.38893,-1.89091 -1.48171,-3.00318 -0.0299,-0.35907 0.0588,-0.67495 0.20467,-1.09859 -2.01302,-0.29858 -5.05649,-0.58051 -7.69611,-0.72733 -2.25179,-0.12525 -3.29679,-0.46741 -6.76581,0 -1.17601,0.15846 -0.9611,-3.08437 0.0507,-3.70428 0.73228,-0.44863 2.07071,0.8193 2.92621,0.74424 z"
       id="path14461"
       sodipodi:nodetypes="ssssssssssscsssss" /></g><g
     id="g10569"
     inkscape:label="robe-above hair"
     style="display:inline"><path
       style="color:#000000;fill:#000000;fill-opacity:1;stroke-linecap:round;stroke-linejoin:round;-inkscape-stroke:none"
       d="m 181.08475,113.12633 c -0.8149,-0.7331 -1.78278,-1.62347 -2.51569,-0.8084 -0.40327,0.39204 -0.52286,1.22611 0.26684,1.79832 0,0 3.63387,3.39098 5.27996,5.15446 3.15877,3.38402 5.88176,7.0997 8.59784,10.78574 3.29941,4.47768 5.79624,9.05331 8.34538,14.54952 3.1197,6.72637 5.38918,13.88773 7.90388,20.88356 1.24891,3.4744 2.90663,7.44146 3.6173,10.43568 0.58603,2.46905 1.92403,17.07903 1.12733,25.36769 -0.30899,3.21463 -1.74487,6.25275 -2.97649,9.21812 -1.23874,2.9825 -3.57122,4.58295 -4.19125,5.18816 -0.50475,0.49268 -1.06763,0.99834 -1.04979,1.66836 0.019,0.71556 0.16822,1.54173 1.34748,1.61704 1.06817,0.0682 2.80697,0.89175 3.14587,1.31274 0.34497,0.42853 1.35148,1.76361 2.08419,3.3104 1.36125,2.87369 1.80924,6.74951 1.84886,10.35435 0.0713,6.49263 -1.09171,13.767 -1.84089,15.77067 l -4.50256,0.0111 c -0.5404,0.001 -1.18098,0.81139 -1.40018,1.34466 -1.4045,3.4169 -0.64787,3.63302 -5.66798,3.65988 -0.3757,-4.98957 -0.75337,-10.35516 -1.47337,-15.69929 -0.54655,-4.05666 -1.15433,-8.12967 -1.72596,-12.16951 -1.05051,-7.42412 -5.88616,-25.56727 -6.66818,-29.62402 -0.78693,-4.08219 -2.58023,-13.07949 -3.25665,-16.63158 -0.97573,-5.12379 -2.63145,-16.09256 -3.29018,-20.18388 -0.35218,-2.18736 -0.88715,-7.72563 -1.20673,-8.71248 -0.3422,-1.05667 -0.76194,-2.85177 -1.75446,-2.89824 -0.59478,-0.0278 -1.00243,1.84805 -0.83259,3.2546 0.19209,1.59082 1.29445,11.55237 1.29099,16.02996 -0.008,10.58633 -0.81424,24.54409 -1.24852,29.49919 -0.46233,5.27506 -1.38987,17.66273 -1.41414,19.38182 -0.0355,2.51642 -0.87074,7.81747 -1.91338,11.68809 -1.23011,4.56653 -2.16915,8.18225 -4.48343,13.35569 -0.22366,0.49999 -0.0851,1.60138 0.33153,1.95695 0.36335,0.31009 0.74333,1.33025 0.74913,1.68795 0.0281,1.73021 -0.15767,5.14706 -0.64845,6.47575 -0.50759,1.37416 -0.82615,2.33946 -1.36823,3.22884 -0.62008,1.01735 -1.50679,1.93168 -2.85955,3.1816 -0.88885,0.82128 -5.3501,2.09853 -9.86156,2.47168 -2.32222,0.19207 -3.78726,0.64879 -7.38689,-0.1946 -0.78789,-0.1846 -1.22598,-1.06533 -1.37973,-3.31394 -0.0816,-1.19385 -0.0404,-1.84576 -0.19435,-2.61251 -0.19797,-0.98588 -1.29246,-1.46948 -1.88222,-1.45045 -0.24308,0.008 -0.84061,-0.12359 -2.00372,0.56307 1.52553,-4.75919 4.36245,-11.8847 6.03156,-18.50671 1.08158,-4.29105 1.92104,-9.44246 2.51851,-13.61431 2.07035,-14.45624 5.47724,-33.42256 6.59961,-39.01758 1.60776,-8.01469 2.97674,-17.33403 3.39961,-24.6172 0.34267,-5.90201 -0.13204,-17.23108 -1.2206,-21.74857 -0.32349,-1.34246 -1.25009,-1.32337 -1.73545,-0.71589 -0.23298,0.29159 -0.53721,1.95418 -0.70527,3.15372 -0.20959,1.4959 -1.00858,2.53214 -1.63307,4.00527 -0.22482,0.53033 -0.61968,2.2332 -1.02371,3.68122 -0.89077,3.19244 -2.95776,7.5526 -4.54791,10.20934 -1.74554,2.91635 -3.29215,5.48413 -5.30495,7.67957 -1.10332,1.20343 -2.72061,2.78578 -4.27631,3.62174 -1.88291,1.01179 -3.40018,1.98895 -5.89773,1.9158 -4.27496,-0.12522 -7.77081,-3.9227 -9.95041,-8.38113 -2.67177,-5.46519 -4.22916,-13.38493 -6.21963,-16.84601 0.13419,-2.06483 0.48178,-4.15943 0.98974,-6.05344 1.63054,-6.07978 4.0609,-10.75255 5.54901,-13.77627 0.48405,-0.98354 -1.03894,-3.90652 -2.0843,-4.23645 -1.04526,-0.33027 -1.46915,1.69855 -2.16907,2.5422 -0.21751,0.26218 -0.81632,1.65865 -1.36892,3.38641 -0.71733,2.24279 -2.40643,4.61284 -2.42592,5.16773 -0.0387,1.10137 -0.23319,1.81187 -0.72943,3.00487 -0.90899,2.18525 -2.50412,6.66347 -3.29274,10.67571 -0.47877,2.43586 -0.91604,4.86694 -1.32477,7.08859 -0.2154,1.1708 -0.49054,1.97897 -0.69199,3.00349 -0.25008,1.27185 -0.42322,2.71236 -0.65836,3.65531 -0.57813,2.36899 4.66024,5.86847 5.61562,3.6249 -0.0533,-1.11912 -0.0466,-1.88223 0.15417,-2.36946 0.3049,-0.27814 0.73165,-2.07409 0.73152,-2.58085 -2.9e-4,-1.12709 0.13641,-4.2409 0.61014,-5.93302 0.18132,-0.64769 0.33823,-1.08623 0.60067,-1.48695 0.47694,0.71802 0.61934,1.57328 0.83786,2.3998 0.82752,3.12993 2.47013,7.73482 3.40869,10.02974 0.47209,1.15432 1.89808,3.59828 3.23585,5.12812 1.32564,1.34188 3.6381,4.833 9.21109,5.05738 2.5309,0.1019 4.91971,-0.93547 6.48829,-1.60464 1.24174,-0.52974 2.59151,-1.7491 3.77869,-2.6135 3.32852,-2.42354 7.36732,-8.77453 8.29793,-10.8242 0.7967,-1.75475 1.97624,-3.39452 2.63318,-5.05698 0.59397,-1.50314 0.97257,-2.53431 1.62264,-4.17631 0.45844,1.69854 0.49475,6.85965 0.24427,9.99559 -0.95201,10.89927 -2.87049,21.12545 -4.83905,30.81772 -1.96099,9.65495 -3.60103,19.53108 -5.01586,29.92496 -0.64249,4.71999 -1.37057,9.61713 -2.50076,14.47757 -0.50309,2.16359 -1.31075,4.04434 -1.77647,6.07536 -0.3211,1.40036 -3.81317,10.47809 -5.44415,15.96104 -0.4131,1.38871 0.43648,3.08879 2.33055,3.01336 0.98801,-0.0393 1.8524,-0.90253 2.58273,-1.20049 0.27805,1.88203 0.62915,4.38452 1.95201,5.13718 0.79578,0.45277 1.94093,1.3048 3.12801,1.36991 2.89798,0.15895 6.70798,0.12739 8.76933,-0.0733 5.00797,-0.48745 8.39461,-1.56981 10.34573,-2.71461 1.03222,-0.60565 1.57202,-1.59097 1.77064,-2.05228 0.1339,-0.311 1.63245,-1.45465 2.71971,-4.03649 0.55419,-1.31601 1.23385,-3.12815 1.35473,-4.07221 0.24304,-1.89815 0.39856,-5.71517 0.048,-7.26144 -0.25866,-1.14104 -0.72084,-1.52697 -0.74768,-1.84701 -0.0266,-0.31743 0.50894,-0.45967 0.85309,-1.53363 1.17283,-3.65994 2.39584,-6.44811 3.22265,-10.30907 0.81917,-3.82523 1.95943,-8.97926 2.20026,-13.03136 0.63373,-10.66304 1.34507,-22.75065 2.14289,-34.20143 0.24559,0.33593 1.24666,6.44441 2.9205,14.2935 1.17196,5.4956 5.14932,21.36826 6.5785,29.48324 1.61959,9.19611 2.83651,18.59848 2.99463,27.03509 -2.49732,0.14602 -1.96677,2.84676 -0.15596,3.43417 2.11764,0.68694 5.17952,0.83878 7.51678,0.28383 0.66453,-0.15778 1.9172,-0.38729 2.75123,-1.20088 1.34126,-1.30842 1.42804,-2.20508 2.04463,-3.70526 1.48438,-0.0131 1.85835,0.0158 3.08965,-0.35042 0.85768,-0.2551 2.59426,-1.06108 3.01413,-1.85128 1.77279,-3.33642 1.97584,-13.69475 2.0267,-15.79515 0.071,-2.93402 -0.30289,-9.19148 -1.6731,-11.8309 -1.63896,-3.15708 -1.86334,-4.34996 -5.13696,-6.57447 1.29552,-1.19264 2.6438,-3.29131 3.52941,-4.93421 1.73398,-3.21673 2.67577,-7.28689 2.93048,-10.56449 0.29958,-3.85474 0.44813,-7.38199 0.70435,-11.1608 0.17105,-2.52259 1.33344,-5.19975 0.69161,-7.69594 -0.95796,-3.72564 -2.17019,-6.92563 -2.21537,-7.08064 -1.04973,-3.6017 -2.27494,-6.59159 -3.79506,-10.61374 -2.67012,-7.06501 -5.42582,-14.95561 -8.263,-21.29488 -2.57628,-5.7563 -5.89357,-11.08211 -9.3132,-15.78189 -2.74232,-3.72372 -6.01256,-7.70642 -8.32037,-10.0386 -1.25198,-1.26521 -3.03515,-2.82669 -5.25351,-4.27386 z"
       id="path7146"
       sodipodi:nodetypes="cccssssssssssssscsscssssssssssssssssssssssscsssssssssssssscsscssssssscccsscsscsssssccsssssscsssssssssssscsscssscsssscssssssscscc" /></g><g
     id="g3493"
     inkscape:label="horn right"
     style="display:inline"><path
       style="fill:#f7cf79;fill-opacity:1;stroke:none;stroke-width:1.85208;stroke-linecap:round;stroke-linejoin:round;stroke-dasharray:none;stroke-opacity:0.5;stop-color:#000000"
       d="m 167.68445,37.316367 33.72825,0.143523 -28.22648,22.820395 -5.02336,1.483085 -7.22406,-7.702479 V 43.774968 l 2.05718,-4.975516 z"
       id="path3503" /><path
       style="color:#000000;display:inline;fill:#000000;fill-opacity:1;stroke-linecap:round;stroke-linejoin:round;-inkscape-stroke:none"
       d="m 201.72948,35.580911 c -1.6796,-0.158705 -16.96447,0.05088 -33.8948,0.584319 -0.65702,0.0207 -3.62291,0.568902 -4.39222,0.791376 -0.58021,0.167789 -2.67218,0.753175 -3.82043,2.955866 -1.20693,2.315251 -1.35212,3.752223 -1.1315,7.564693 0.21351,3.689758 1.09147,8.96308 3.6536,12.280723 1.28106,1.658822 3.10856,3.316811 5.38503,3.787457 0.90617,0.187344 2.11508,-0.08827 3.64138,-1.553345 1.41703,0.861024 2.62744,-0.253048 3.73839,-1.141369 4.58145,-3.663362 12.09394,-7.752059 17.04179,-12.313441 1.73832,-0.954647 4.21324,-2.214967 6.06916,-3.800218 1.39311,-0.310561 3.86283,-2.875663 4.52818,-3.491218 0.74408,-0.688394 1.20794,-1.566563 1.14487,-2.615672 -0.091,-1.512818 -0.38719,-2.900229 -1.96345,-3.049171 z m -6.0607,3.312346 c 1.13626,-0.06816 3.81334,-0.517024 0.0212,2.011101 -0.97563,0.650432 -3.10804,2.496528 -5.7694,4.815682 -2.99534,2.610183 -11.91061,8.62261 -17.20035,12.179162 -1.72074,1.156938 -3.07961,2.213645 -4.26947,2.017176 -1.20188,-0.198452 -3.03718,-1.602485 -3.8648,-2.67415 -0.82761,-1.071662 -1.47196,-2.610231 -1.93269,-4.283231 -0.46074,-1.672999 -0.87426,-3.456937 -0.9745,-5.065895 -0.12212,-1.960072 -0.32541,-4.548323 0.23617,-6.011702 0.24136,-0.628947 0.9516,-1.488896 1.9378,-2.095283 1.5005,-0.127972 1.48289,-0.815687 1.58421,-1.148008 0.96103,-0.144108 2.38663,-0.360429 3.27723,-0.286061 7.0363,0.587548 16.72141,1.155048 26.95459,0.541209 z"
       id="path354"
       sodipodi:nodetypes="ssssssscsccssssssssssssccss" /><path
       style="color:#000000;fill:#000000;fill-opacity:1;stroke-linecap:round;stroke-linejoin:round;-inkscape-stroke:none"
       d="m 178.92208,46.148075 c -0.49038,-0.475585 -0.86176,-1.079472 -1.33666,-0.194507 -0.1026,0.191174 0.29348,1.417808 1.34837,2.365254 0.35892,0.322357 1.34519,1.051686 1.99922,1.389841 1.06254,0.549357 1.76389,0.688644 2.30644,0.918532 1.31081,0.555409 0.51364,0.228782 1.35235,0.620852 0.46389,0.216853 1.32657,-0.07502 1.53948,-0.540754 0.21307,-0.466056 0.10091,-1.60278 -0.65035,-1.718891 -0.97582,-0.15082 -2.24461,-0.339922 -3.90599,-1.148075 -1.06111,-0.516162 -2.49269,-1.536907 -2.65286,-1.692252 z"
       id="path3486"
       sodipodi:nodetypes="ssssssssss" /><path
       style="color:#000000;fill:#000000;fill-opacity:1;stroke-linecap:round;stroke-linejoin:round;-inkscape-stroke:none"
       d="m 171.64345,41.539667 c -0.20505,0.0018 -0.89262,0.163293 -1.02807,1.561099 -0.1132,1.168143 -0.19775,2.657798 0.003,3.805922 0.31028,1.775424 0.3588,2.309818 0.73679,3.450631 0.33206,1.002213 0.76292,2.010706 1.02543,2.481522 0.77838,1.396059 1.1983,2.205118 3.4593,4.229518 0.43552,0.389948 1.03987,0.513328 1.49024,0.140625 0.45037,-0.372701 0.60422,-1.134133 0.14062,-1.490234 -1.87445,-1.43981 -3.33705,-3.042374 -3.81375,-4.563126 -0.43542,-1.389047 -1.04511,-2.995017 -1.21164,-4.583358 -0.13725,-1.309105 -0.24779,-3.495651 -0.11611,-4.02173 0.10443,-0.417229 -0.0763,-1.016169 -0.6857,-1.010869 z"
       id="path3488"
       sodipodi:nodetypes="ssssssssssss" /></g></svg>
